<svg width="128" height="128" viewBox="0 0 128 128" fill="none" xmlns="http://www.w3.org/2000/svg">
<path fill-rule="evenodd" clip-rule="evenodd" d="M86.8118 39.9727C85.6934 40.3734 84.3976 41.9594 84.3976 42.9262C84.3976 43.7531 88.1614 42.6786 89.3136 41.523C90.6305 40.2021 88.9967 39.1894 86.8118 39.9727ZM34.3027 45.9729C32.3804 46.8149 32.2851 46.9687 33.2465 47.6805C34.1585 48.3567 34.3027 49.5408 34.3027 56.3436C34.3027 62.5835 34.1156 64.379 33.404 64.9716C32.9097 65.3832 32.6544 65.9613 32.8361 66.2561C33.3298 67.057 38.7787 66.9044 39.614 66.0667C40.5996 65.0781 40.5241 64.3717 39.4329 64.3717C38.6658 64.3717 38.5276 62.8922 38.5276 54.6862C38.5276 43.8754 38.6266 44.08 34.3027 45.9729ZM50.2969 45.8554C46.4921 47.5516 44.5631 50.9627 44.5631 55.9962C44.5631 62.4727 48.38 66.3088 54.8235 66.3088C60.7987 66.3088 64.4924 63.1495 65.4358 57.2335C66.1468 52.7721 63.2998 47.525 59.247 45.8264C56.77 44.7888 52.6598 44.8015 50.2969 45.8554ZM74.1197 46.2332C70.9203 48.1467 69.2466 51.0039 68.9231 55.1057C68.6944 58.0053 68.8887 59.035 70.0337 60.9854C74.1541 68.0062 83.3082 68.4003 88.2441 61.7699C90.0734 59.3122 90.3016 53.7491 88.7009 50.6038C86.8547 46.9729 84.2884 45.3839 79.8969 45.152C77.0294 45.0007 75.7946 45.2313 74.1197 46.2332ZM57.7725 48.4106C59.5355 49.6491 61.4318 53.754 61.4493 56.3703C61.4668 59.0126 60.0455 62.302 58.5354 63.1126C56.3125 64.3057 52.498 63.9104 50.9149 62.3226C47.7336 59.1318 47.5954 52.1571 50.653 49.0904C52.5898 47.1478 55.5701 46.8633 57.7725 48.4106ZM82.8066 48.9124C84.904 50.8616 85.6047 52.8363 85.6047 56.7976C85.6047 59.4042 85.2975 60.4073 84.0421 61.9037C82.7022 63.5012 82.0721 63.7663 79.6205 63.7663C77.435 63.7663 76.4621 63.4455 75.4898 62.4043C72.0314 58.7014 72.0513 51.2339 75.526 48.4947C77.5087 46.9323 80.8849 47.1261 82.8066 48.9124Z" fill="#BA462D"/>
<path d="M36.4837 79.9541V79.5713L36.9982 79.5365C37.0598 79.5307 37.1067 79.5075 37.1389 79.4669C37.1712 79.4263 37.1873 79.3842 37.1873 79.3407V77.0396H34.2235V79.3407C34.2235 79.3842 34.2382 79.4263 34.2675 79.4669C34.2997 79.5075 34.3481 79.5307 34.4126 79.5365L34.9271 79.5713V79.9541H32.6493V79.5713L33.1154 79.5365C33.1799 79.5307 33.2283 79.5075 33.2605 79.4669C33.2957 79.4263 33.3133 79.3842 33.3133 79.3407V74.5906C33.3133 74.5471 33.2957 74.5065 33.2605 74.4688C33.2283 74.4311 33.1799 74.4093 33.1154 74.4035L32.6493 74.3687V73.9772H34.9271V74.3687L34.4126 74.4035C34.3481 74.4093 34.2997 74.4311 34.2675 74.4688C34.2382 74.5065 34.2235 74.5471 34.2235 74.5906V76.5959H37.1873V74.5906C37.1873 74.5471 37.1712 74.5065 37.1389 74.4688C37.1067 74.4311 37.0598 74.4093 36.9982 74.4035L36.4837 74.3687V73.9772H38.7615V74.3687L38.2954 74.4035C38.2309 74.4093 38.1811 74.4311 38.1459 74.4688C38.1137 74.5065 38.0975 74.5471 38.0975 74.5906V79.3407C38.0975 79.3842 38.1137 79.4263 38.1459 79.4669C38.1811 79.5075 38.2309 79.5307 38.2954 79.5365L38.7615 79.5713V79.9541H36.4837Z" fill="#727171"/>
<path d="M42.5121 79.9541L42.3933 79.4277C42.235 79.5466 42.0723 79.6525 41.9052 79.7453C41.8319 79.7859 41.7543 79.825 41.6722 79.8627C41.5901 79.9004 41.5051 79.9338 41.4171 79.9628C41.3321 79.9947 41.2442 80.0193 41.1533 80.0367C41.0654 80.0541 40.9774 80.0628 40.8895 80.0628C40.7253 80.0628 40.5714 80.0353 40.4277 79.9802C40.287 79.9251 40.1639 79.8453 40.0584 79.7409C39.9528 79.6365 39.8693 79.5104 39.8077 79.3625C39.7491 79.2146 39.7198 79.0464 39.7198 78.8579C39.7198 78.7477 39.73 78.6433 39.7506 78.5447C39.774 78.4461 39.8195 78.3504 39.8869 78.2576C39.9543 78.1648 40.0481 78.0763 40.1683 77.9922C40.2914 77.9052 40.4512 77.8197 40.6476 77.7356C40.847 77.6515 41.0888 77.5688 41.3732 77.4876C41.6605 77.4035 42.0005 77.3194 42.3933 77.2353V76.8526C42.3933 76.5539 42.3259 76.3335 42.1911 76.1914C42.0562 76.0464 41.8437 75.9739 41.5535 75.9739C41.3951 75.9739 41.2603 75.9884 41.1489 76.0174C41.0375 76.0464 40.9598 76.0696 40.9158 76.087V76.8613H40.2606C40.2196 76.8613 40.1786 76.8584 40.1375 76.8526C40.0994 76.8468 40.0642 76.8352 40.032 76.8178C39.9997 76.7975 39.9734 76.7714 39.9528 76.7395C39.9352 76.7047 39.9265 76.6597 39.9265 76.6046C39.9265 76.4219 39.9822 76.2653 40.0936 76.1348C40.2049 76.0014 40.3501 75.8912 40.5289 75.8042C40.7077 75.7172 40.9085 75.6534 41.1313 75.6128C41.3541 75.5722 41.5769 75.5519 41.7997 75.5519C42.0782 75.5519 42.3083 75.5853 42.4901 75.652C42.6748 75.7187 42.8199 75.8115 42.9254 75.9304C43.0339 76.0493 43.1101 76.1899 43.1541 76.3523C43.198 76.5147 43.22 76.6931 43.22 76.8874V79.3842C43.22 79.4393 43.2376 79.4843 43.2728 79.5191C43.3109 79.5539 43.3563 79.5742 43.4091 79.58L43.8444 79.6061V79.9541H42.5121ZM42.3933 77.5746C41.9888 77.6761 41.6678 77.7762 41.4303 77.8748C41.1929 77.9734 41.0126 78.0734 40.8895 78.1749C40.7693 78.2735 40.6916 78.375 40.6564 78.4794C40.6242 78.5809 40.608 78.6868 40.608 78.797C40.608 78.8898 40.6227 78.9811 40.652 79.071C40.6843 79.158 40.7282 79.2363 40.7839 79.3059C40.8426 79.3755 40.9129 79.4321 40.995 79.4756C41.08 79.5162 41.1767 79.5365 41.2852 79.5365C41.4054 79.5365 41.53 79.5147 41.659 79.4712C41.7909 79.4277 41.9111 79.3799 42.0196 79.3277C42.1456 79.2668 42.2702 79.1957 42.3933 79.1145V77.5746Z" fill="#727171"/>
<path d="M48.5492 76.0609L46.975 79.9541H46.3901L44.939 76.0609L44.4421 76.0087V75.6607H46.4341V76.0087L46.0032 76.0348C45.9621 76.0406 45.9269 76.0565 45.8976 76.0826C45.8712 76.1058 45.858 76.1377 45.858 76.1783C45.858 76.1899 45.861 76.2073 45.8668 76.2305L46.8738 79.0188L47.9819 76.2305C47.9907 76.2131 47.9951 76.1943 47.9951 76.174C47.9951 76.1392 47.9819 76.1087 47.9556 76.0826C47.9321 76.0536 47.8999 76.0377 47.8588 76.0348L47.4543 76.0087V75.6607H49.0285V76.0087L48.5492 76.0609Z" fill="#727171"/>
<path d="M53.5881 79.5104C53.4621 79.5887 53.3302 79.6612 53.1924 79.7279C53.0575 79.7946 52.9168 79.8526 52.7702 79.9019C52.6266 79.9512 52.48 79.9903 52.3305 80.0193C52.181 80.0483 52.03 80.0628 51.8776 80.0628C51.6049 80.0628 51.3426 80.0179 51.0905 79.928C50.8384 79.8352 50.6156 79.6974 50.4221 79.5147C50.2315 79.332 50.0776 79.1029 49.9604 78.8274C49.846 78.549 49.7889 78.2242 49.7889 77.853C49.7889 77.505 49.8416 77.1904 49.9472 76.9091C50.0527 76.6249 50.1993 76.3828 50.3869 76.1827C50.5745 75.9797 50.7973 75.8245 51.0553 75.7172C51.3133 75.607 51.5962 75.5519 51.904 75.5519C52.1825 75.5519 52.4272 75.5983 52.6383 75.6911C52.8494 75.781 53.0253 75.9072 53.166 76.0696C53.3067 76.2291 53.4122 76.4219 53.4826 76.6481C53.5529 76.8714 53.5881 77.115 53.5881 77.3789V77.4963C53.5881 77.5427 53.5852 77.5862 53.5793 77.6268H50.6595C50.6595 77.853 50.683 78.0792 50.7299 78.3054C50.7797 78.5316 50.8618 78.7346 50.9761 78.9144C51.0905 79.0942 51.2444 79.2407 51.4379 79.3538C51.6313 79.464 51.8732 79.5191 52.1634 79.5191C52.2924 79.5191 52.4199 79.5031 52.546 79.4712C52.672 79.4364 52.7951 79.3929 52.9153 79.3407C53.0385 79.2885 53.1557 79.2305 53.2671 79.1667C53.3785 79.1 53.4855 79.0333 53.5881 78.9666V79.5104ZM52.6867 77.0309C52.6867 76.883 52.6691 76.7467 52.6339 76.622C52.5987 76.4944 52.5445 76.3842 52.4712 76.2914C52.4009 76.1986 52.31 76.1261 52.1986 76.0739C52.0901 76.0188 51.9611 75.9913 51.8116 75.9913C51.6621 75.9913 51.5229 76.0203 51.3939 76.0783C51.2649 76.1334 51.1506 76.2146 51.0509 76.3219C50.9542 76.4292 50.875 76.5597 50.8134 76.7134C50.7548 76.8642 50.7196 77.0352 50.7079 77.2266H52.6867V77.0309Z" fill="#727171"/>
<path d="M61.7708 79.9541L61.6521 79.4277C61.4937 79.5466 61.331 79.6525 61.164 79.7453C61.0907 79.7859 61.013 79.825 60.9309 79.8627C60.8488 79.9004 60.7638 79.9338 60.6759 79.9628C60.5908 79.9947 60.5029 80.0193 60.412 80.0367C60.3241 80.0541 60.2361 80.0628 60.1482 80.0628C59.984 80.0628 59.8301 80.0353 59.6865 79.9802C59.5457 79.9251 59.4226 79.8453 59.3171 79.7409C59.2116 79.6365 59.128 79.5104 59.0664 79.3625C59.0078 79.2146 58.9785 79.0464 58.9785 78.8579C58.9785 78.7477 58.9888 78.6433 59.0093 78.5447C59.0327 78.4461 59.0782 78.3504 59.1456 78.2576C59.213 78.1648 59.3068 78.0763 59.427 77.9922C59.5501 77.9052 59.7099 77.8197 59.9063 77.7356C60.1057 77.6515 60.3475 77.5688 60.6319 77.4876C60.9192 77.4035 61.2592 77.3194 61.6521 77.2353V76.8526C61.6521 76.5539 61.5846 76.3335 61.4498 76.1914C61.3149 76.0464 61.1024 75.9739 60.8122 75.9739C60.6539 75.9739 60.519 75.9884 60.4076 76.0174C60.2962 76.0464 60.2185 76.0696 60.1746 76.087V76.8613H59.5194C59.4783 76.8613 59.4373 76.8584 59.3962 76.8526C59.3581 76.8468 59.323 76.8352 59.2907 76.8178C59.2585 76.7975 59.2321 76.7714 59.2116 76.7395C59.194 76.7047 59.1852 76.6597 59.1852 76.6046C59.1852 76.4219 59.2409 76.2653 59.3523 76.1348C59.4637 76.0014 59.6088 75.8912 59.7876 75.8042C59.9664 75.7172 60.1672 75.6534 60.39 75.6128C60.6128 75.5722 60.8356 75.5519 61.0584 75.5519C61.3369 75.5519 61.567 75.5853 61.7488 75.652C61.9335 75.7187 62.0786 75.8115 62.1841 75.9304C62.2926 76.0493 62.3688 76.1899 62.4128 76.3523C62.4568 76.5147 62.4787 76.6931 62.4787 76.8874V79.3842C62.4787 79.4393 62.4963 79.4843 62.5315 79.5191C62.5696 79.5539 62.6151 79.5742 62.6678 79.58L63.1032 79.6061V79.9541H61.7708ZM61.6521 77.5746C61.2475 77.6761 60.9265 77.7762 60.689 77.8748C60.4516 77.9734 60.2713 78.0734 60.1482 78.1749C60.028 78.2735 59.9503 78.375 59.9151 78.4794C59.8829 78.5809 59.8668 78.6868 59.8668 78.797C59.8668 78.8898 59.8814 78.9811 59.9107 79.071C59.943 79.158 59.9869 79.2363 60.0426 79.3059C60.1013 79.3755 60.1716 79.4321 60.2537 79.4756C60.3387 79.5162 60.4355 79.5365 60.5439 79.5365C60.6641 79.5365 60.7887 79.5147 60.9177 79.4712C61.0496 79.4277 61.1698 79.3799 61.2783 79.3277C61.4043 79.2668 61.5289 79.1957 61.6521 79.1145V77.5746Z" fill="#727171"/>
<path d="M71.7035 76.2566C71.771 76.3639 71.8281 76.4814 71.875 76.609C71.9219 76.7337 71.9454 76.883 71.9454 77.057C71.9454 77.2803 71.897 77.4789 71.8003 77.6529C71.7035 77.8269 71.5731 77.9748 71.4089 78.0966C71.2477 78.2184 71.0601 78.3112 70.8461 78.375C70.635 78.4388 70.4122 78.4707 70.1777 78.4707H70.0897C70.0604 78.4707 70.0311 78.4693 70.0018 78.4664C69.9637 78.5273 69.9373 78.5925 69.9226 78.6621C69.9109 78.7317 69.9051 78.797 69.9051 78.8579C69.9051 78.913 69.908 78.9594 69.9139 78.9971C69.9197 79.0348 69.9241 79.0565 69.927 79.0623L70.0546 79.0754C70.1953 79.0899 70.3492 79.1073 70.5163 79.1276C70.6863 79.145 70.8563 79.1725 71.0264 79.2102C71.1993 79.245 71.3664 79.2914 71.5277 79.3494C71.6889 79.4045 71.8311 79.4756 71.9542 79.5626C72.0803 79.6467 72.1799 79.7511 72.2532 79.8758C72.3294 79.9976 72.3675 80.1426 72.3675 80.3108C72.3675 80.5225 72.306 80.7284 72.1829 80.9285C72.0627 81.1315 71.897 81.3113 71.686 81.4678C71.4749 81.6273 71.2272 81.7549 70.9428 81.8506C70.6585 81.9463 70.3536 81.9942 70.0282 81.9942C69.7585 81.9942 69.5181 81.9623 69.307 81.8985C69.0989 81.8347 68.923 81.7462 68.7794 81.6331C68.6357 81.52 68.5258 81.3852 68.4496 81.2286C68.3733 81.0749 68.3352 80.9082 68.3352 80.7284C68.3352 80.5979 68.3543 80.4732 68.3924 80.3543C68.4305 80.2383 68.4891 80.1324 68.5683 80.0367C68.6474 79.9439 68.7456 79.8642 68.8629 79.7975C68.9831 79.7279 69.1253 79.6786 69.2894 79.6496C69.2718 79.6032 69.2572 79.5655 69.2455 79.5365C69.2337 79.5046 69.2235 79.4756 69.2147 79.4495C69.2088 79.4205 69.2044 79.3915 69.2015 79.3625C69.1986 79.3306 69.1971 79.29 69.1971 79.2407C69.1971 79.1247 69.2323 78.9971 69.3026 78.8579C69.3759 78.7158 69.4917 78.565 69.65 78.4055C69.5005 78.3707 69.3583 78.3156 69.2235 78.2402C69.0886 78.1648 68.9699 78.0705 68.8673 77.9574C68.7647 77.8414 68.6826 77.7095 68.6211 77.5616C68.5624 77.4108 68.5331 77.2455 68.5331 77.0657C68.5331 76.8308 68.5771 76.6206 68.665 76.435C68.753 76.2465 68.8761 76.087 69.0344 75.9565C69.1927 75.826 69.3818 75.7259 69.6016 75.6563C69.8244 75.5867 70.0707 75.5519 70.3404 75.5519C70.4459 75.5519 70.5485 75.5606 70.6482 75.578C70.7508 75.5954 70.8461 75.6186 70.934 75.6476C71.0249 75.6737 71.1085 75.7027 71.1847 75.7346C71.2609 75.7665 71.3283 75.7955 71.3869 75.8216L71.5936 75.9826L71.686 76.1044L71.7035 76.2566ZM71.5936 80.55C71.5936 80.4282 71.5628 80.3238 71.5013 80.2368C71.4397 80.1527 71.3576 80.0831 71.255 80.028C71.1554 79.9729 71.041 79.9294 70.912 79.8975C70.786 79.8627 70.657 79.8352 70.5251 79.8149C70.3961 79.7917 70.27 79.7743 70.1469 79.7627C70.0238 79.7482 69.9183 79.7322 69.8303 79.7148C69.6984 79.7612 69.5885 79.8178 69.5005 79.8845C69.4126 79.9483 69.3422 80.0179 69.2894 80.0933C69.2367 80.1687 69.1986 80.2455 69.1751 80.3238C69.1546 80.4021 69.1443 80.4775 69.1443 80.55C69.1443 80.6573 69.1678 80.7719 69.2147 80.8937C69.2616 81.0155 69.3334 81.1271 69.4302 81.2286C69.5269 81.3301 69.6486 81.4142 69.7951 81.4809C69.9446 81.5505 70.1205 81.5853 70.3228 81.5853C70.5368 81.5853 70.723 81.5505 70.8813 81.4809C71.0425 81.4142 71.1759 81.3301 71.2814 81.2286C71.3869 81.1271 71.4646 81.0155 71.5145 80.8937C71.5672 80.7719 71.5936 80.6573 71.5936 80.55ZM71.0879 77.0048C71.0879 76.8656 71.0689 76.7308 71.0308 76.6003C70.9956 76.4669 70.9428 76.3509 70.8725 76.2523C70.8021 76.1508 70.7142 76.0696 70.6086 76.0087C70.506 75.9478 70.3873 75.9173 70.2524 75.9173C70.1264 75.9173 70.0106 75.942 69.9051 75.9913C69.7995 76.0406 69.7086 76.1131 69.6324 76.2088C69.5591 76.3016 69.5005 76.4161 69.4565 76.5524C69.4155 76.6887 69.395 76.8424 69.395 77.0135C69.395 77.1614 69.4126 77.302 69.4477 77.4354C69.4859 77.5659 69.5401 77.6805 69.6104 77.7791C69.6837 77.8777 69.7731 77.956 69.8787 78.014C69.9871 78.072 70.1117 78.101 70.2524 78.101C70.3873 78.101 70.506 78.072 70.6086 78.014C70.7142 77.956 70.8021 77.8777 70.8725 77.7791C70.9428 77.6805 70.9956 77.5645 71.0308 77.4311C71.0689 77.2977 71.0879 77.1556 71.0879 77.0048Z" fill="#727171"/>
<path d="M77.7099 77.8139C77.7099 78.13 77.6586 78.4258 77.556 78.7013C77.4563 78.9739 77.3127 79.2117 77.1251 79.4147C76.9404 79.6148 76.7146 79.7728 76.4479 79.8888C76.184 80.0048 75.888 80.0628 75.5596 80.0628C75.2313 80.0628 74.9352 80.0063 74.6714 79.8932C74.4075 79.7772 74.1833 79.6191 73.9986 79.419C73.8139 79.2189 73.6717 78.9826 73.572 78.71C73.4753 78.4345 73.4269 78.1358 73.4269 77.8139C73.4269 77.4978 73.4768 77.202 73.5764 76.9265C73.6761 76.651 73.8198 76.4118 74.0074 76.2088C74.195 76.0029 74.4207 75.8419 74.6846 75.7259C74.9513 75.6099 75.2518 75.5519 75.586 75.5519C75.9202 75.5519 76.2192 75.6114 76.4831 75.7303C76.7469 75.8492 76.9697 76.0116 77.1514 76.2175C77.3332 76.4205 77.471 76.6597 77.5648 76.9352C77.6615 77.2078 77.7099 77.5007 77.7099 77.8139ZM76.7733 77.8052C76.7733 77.5616 76.7484 77.3281 76.6985 77.1048C76.6516 76.8816 76.5783 76.6844 76.4787 76.5133C76.379 76.3422 76.2544 76.2059 76.1049 76.1044C75.9554 76.0029 75.7795 75.9521 75.5772 75.9521C75.3691 75.9521 75.1888 76.0029 75.0363 76.1044C74.8839 76.2059 74.7578 76.3422 74.6582 76.5133C74.5614 76.6844 74.4896 76.8816 74.4427 77.1048C74.3958 77.3281 74.3724 77.5616 74.3724 77.8052C74.3724 78.0459 74.3958 78.2779 74.4427 78.5012C74.4925 78.7245 74.5673 78.9217 74.667 79.0928C74.7666 79.2639 74.8912 79.4016 75.0407 79.506C75.1902 79.6075 75.3661 79.6583 75.5684 79.6583C75.7736 79.6583 75.9524 79.6075 76.1049 79.506C76.2573 79.4045 76.3819 79.2682 76.4787 79.0971C76.5783 78.926 76.6516 78.7288 76.6985 78.5055C76.7484 78.2822 76.7733 78.0488 76.7733 77.8052Z" fill="#727171"/>
<path d="M82.9687 77.8139C82.9687 78.13 82.9174 78.4258 82.8148 78.7013C82.7151 78.9739 82.5715 79.2117 82.3839 79.4147C82.1992 79.6148 81.9734 79.7728 81.7067 79.8888C81.4428 80.0048 81.1468 80.0628 80.8184 80.0628C80.4901 80.0628 80.194 80.0063 79.9302 79.8932C79.6663 79.7772 79.4421 79.6191 79.2574 79.419C79.0727 79.2189 78.9305 78.9826 78.8309 78.71C78.7341 78.4345 78.6857 78.1358 78.6857 77.8139C78.6857 77.4978 78.7356 77.202 78.8352 76.9265C78.9349 76.651 79.0786 76.4118 79.2662 76.2088C79.4538 76.0029 79.6795 75.8419 79.9434 75.7259C80.2101 75.6099 80.5106 75.5519 80.8448 75.5519C81.179 75.5519 81.478 75.6114 81.7419 75.7303C82.0057 75.8492 82.2285 76.0116 82.4102 76.2175C82.592 76.4205 82.7298 76.6597 82.8236 76.9352C82.9203 77.2078 82.9687 77.5007 82.9687 77.8139ZM82.0321 77.8052C82.0321 77.5616 82.0072 77.3281 81.9573 77.1048C81.9104 76.8816 81.8371 76.6844 81.7375 76.5133C81.6378 76.3422 81.5132 76.2059 81.3637 76.1044C81.2142 76.0029 81.0383 75.9521 80.836 75.9521C80.6279 75.9521 80.4476 76.0029 80.2951 76.1044C80.1427 76.2059 80.0167 76.3422 79.917 76.5133C79.8202 76.6844 79.7484 76.8816 79.7015 77.1048C79.6546 77.3281 79.6312 77.5616 79.6312 77.8052C79.6312 78.0459 79.6546 78.2779 79.7015 78.5012C79.7514 78.7245 79.8261 78.9217 79.9258 79.0928C80.0254 79.2639 80.15 79.4016 80.2995 79.506C80.4491 79.6075 80.6249 79.6583 80.8272 79.6583C81.0324 79.6583 81.2113 79.6075 81.3637 79.506C81.5161 79.4045 81.6407 79.2682 81.7375 79.0971C81.8371 78.926 81.9104 78.7288 81.9573 78.5055C82.0072 78.2822 82.0321 78.0488 82.0321 77.8052Z" fill="#727171"/>
<path d="M87.8511 79.6539V79.1798C87.7485 79.2581 87.6415 79.3335 87.5301 79.406C87.4216 79.4756 87.3087 79.5365 87.1915 79.5887C87.0772 79.6409 86.9584 79.6829 86.8353 79.7148C86.7151 79.7467 86.5891 79.7627 86.4571 79.7627C86.1552 79.7627 85.8943 79.6989 85.6744 79.5713C85.4575 79.4408 85.2787 79.274 85.138 79.071C84.9972 78.8651 84.8932 78.636 84.8257 78.3837C84.7612 78.1285 84.729 77.8748 84.729 77.6225C84.729 77.3209 84.7759 77.028 84.8697 76.7438C84.9635 76.4567 85.1057 76.203 85.2963 75.9826C85.4868 75.7622 85.7257 75.5853 86.013 75.4519C86.3003 75.3185 86.6374 75.2518 87.0244 75.2518C87.0947 75.2518 87.171 75.2561 87.253 75.2648C87.3351 75.2735 87.4143 75.2837 87.4905 75.2953C87.5697 75.304 87.64 75.3156 87.7016 75.3301C87.7661 75.3417 87.8159 75.3518 87.8511 75.3605V73.7293H87.1695V73.4335L88.3304 73.0898H88.691V79.0841C88.691 79.1392 88.7085 79.1841 88.7437 79.2189C88.7789 79.2537 88.8243 79.274 88.88 79.2798L89.267 79.3059V79.6539H87.8511ZM87.8511 75.8129C87.813 75.8013 87.7631 75.7883 87.7016 75.7738C87.6429 75.7564 87.5784 75.7419 87.5081 75.7303C87.4407 75.7158 87.3688 75.7042 87.2926 75.6955C87.2193 75.6868 87.1504 75.6824 87.0859 75.6824C86.8632 75.6824 86.6609 75.7259 86.4791 75.8129C86.2974 75.897 86.142 76.0174 86.013 76.174C85.887 76.3277 85.7887 76.5147 85.7184 76.7351C85.651 76.9555 85.6173 77.2005 85.6173 77.4702C85.6173 77.7138 85.6466 77.9386 85.7052 78.1445C85.7638 78.3475 85.8488 78.5244 85.9602 78.6752C86.0716 78.826 86.208 78.9434 86.3692 79.0275C86.5304 79.1116 86.7151 79.1537 86.9232 79.1537C87.0141 79.1537 87.1021 79.145 87.1871 79.1276C87.2721 79.1073 87.3542 79.0826 87.4333 79.0536C87.5125 79.0217 87.5872 78.9884 87.6576 78.9536C87.728 78.9159 87.7924 78.8796 87.8511 78.8448V75.8129Z" fill="#727171"/>
<path d="M96.9246 79.9541V79.4799C96.822 79.5582 96.715 79.6336 96.6036 79.7061C96.4952 79.7757 96.3823 79.8366 96.265 79.8888C96.1507 79.941 96.032 79.9831 95.9089 80.015C95.7887 80.0469 95.6626 80.0628 95.5307 80.0628C95.2288 80.0628 94.9678 79.999 94.748 79.8714C94.531 79.7409 94.3522 79.5742 94.2115 79.3712C94.0708 79.1653 93.9667 78.9362 93.8993 78.6839C93.8348 78.4287 93.8026 78.1749 93.8026 77.9226C93.8026 77.621 93.8495 77.3281 93.9433 77.0439C94.0371 76.7569 94.1793 76.5031 94.3698 76.2827C94.5604 76.0623 94.7993 75.8854 95.0866 75.752C95.3739 75.6186 95.711 75.5519 96.098 75.5519C96.1683 75.5519 96.2445 75.5563 96.3266 75.565C96.4087 75.5737 96.4878 75.5838 96.5641 75.5954C96.6432 75.6041 96.7136 75.6157 96.7751 75.6302C96.8396 75.6418 96.8895 75.652 96.9246 75.6607V74.0294H96.2431V73.7336L97.4039 73.39H97.7645V79.3842C97.7645 79.4393 97.7821 79.4843 97.8173 79.5191C97.8525 79.5539 97.8979 79.5742 97.9536 79.58L98.3406 79.6061V79.9541H96.9246ZM96.9246 76.1131C96.8865 76.1015 96.8367 76.0884 96.7751 76.0739C96.7165 76.0565 96.652 76.042 96.5817 76.0304C96.5142 76.0159 96.4424 76.0043 96.3662 75.9956C96.2929 75.9869 96.224 75.9826 96.1595 75.9826C95.9367 75.9826 95.7344 76.0261 95.5527 76.1131C95.3709 76.1972 95.2156 76.3175 95.0866 76.4741C94.9605 76.6278 94.8623 76.8149 94.792 77.0352C94.7245 77.2556 94.6908 77.5007 94.6908 77.7704C94.6908 78.014 94.7201 78.2387 94.7788 78.4446C94.8374 78.6476 94.9224 78.8245 95.0338 78.9753C95.1452 79.1261 95.2815 79.2436 95.4428 79.3277C95.604 79.4118 95.7887 79.4538 95.9968 79.4538C96.0877 79.4538 96.1756 79.4451 96.2606 79.4277C96.3457 79.4074 96.4277 79.3828 96.5069 79.3538C96.586 79.3219 96.6608 79.2885 96.7312 79.2537C96.8015 79.216 96.866 79.1798 96.9246 79.145V76.1131Z" fill="#727171"/>
<path d="M102.038 79.9541L101.92 79.4277C101.761 79.5466 101.599 79.6525 101.432 79.7453C101.358 79.7859 101.281 79.825 101.198 79.8627C101.116 79.9004 101.031 79.9338 100.943 79.9628C100.858 79.9947 100.77 80.0193 100.68 80.0367C100.592 80.0541 100.504 80.0628 100.416 80.0628C100.252 80.0628 100.098 80.0353 99.954 79.9802C99.8133 79.9251 99.6902 79.8453 99.5846 79.7409C99.4791 79.6365 99.3956 79.5104 99.334 79.3625C99.2754 79.2146 99.246 79.0464 99.246 78.8579C99.246 78.7477 99.2563 78.6433 99.2768 78.5447C99.3003 78.4461 99.3457 78.3504 99.4131 78.2576C99.4806 78.1648 99.5744 78.0763 99.6946 77.9922C99.8177 77.9052 99.9775 77.8197 100.174 77.7356C100.373 77.6515 100.615 77.5688 100.899 77.4876C101.187 77.4035 101.527 77.3194 101.92 77.2353V76.8526C101.92 76.5539 101.852 76.3335 101.717 76.1914C101.582 76.0464 101.37 75.9739 101.08 75.9739C100.921 75.9739 100.787 75.9884 100.675 76.0174C100.564 76.0464 100.486 76.0696 100.442 76.087V76.8613H99.7869C99.7459 76.8613 99.7048 76.8584 99.6638 76.8526C99.6257 76.8468 99.5905 76.8352 99.5583 76.8178C99.526 76.7975 99.4996 76.7714 99.4791 76.7395C99.4615 76.7047 99.4527 76.6597 99.4527 76.6046C99.4527 76.4219 99.5084 76.2653 99.6198 76.1348C99.7312 76.0014 99.8763 75.8912 100.055 75.8042C100.234 75.7172 100.435 75.6534 100.658 75.6128C100.88 75.5722 101.103 75.5519 101.326 75.5519C101.604 75.5519 101.835 75.5853 102.016 75.652C102.201 75.7187 102.346 75.8115 102.452 75.9304C102.56 76.0493 102.636 76.1899 102.68 76.3523C102.724 76.5147 102.746 76.6931 102.746 76.8874V79.3842C102.746 79.4393 102.764 79.4843 102.799 79.5191C102.837 79.5539 102.883 79.5742 102.935 79.58L103.371 79.6061V79.9541H102.038ZM101.92 77.5746C101.515 77.6761 101.194 77.7762 100.957 77.8748C100.719 77.9734 100.539 78.0734 100.416 78.1749C100.296 78.2735 100.218 78.375 100.183 78.4794C100.15 78.5809 100.134 78.6868 100.134 78.797C100.134 78.8898 100.149 78.9811 100.178 79.071C100.211 79.158 100.254 79.2363 100.31 79.3059C100.369 79.3755 100.439 79.4321 100.521 79.4756C100.606 79.5162 100.703 79.5365 100.811 79.5365C100.932 79.5365 101.056 79.5147 101.185 79.4712C101.317 79.4277 101.437 79.3799 101.546 79.3277C101.672 79.2668 101.796 79.1957 101.92 79.1145V77.5746Z" fill="#727171"/>
<path d="M108.093 76.0609L106.365 80.2281C106.336 80.3006 106.295 80.3978 106.242 80.5196C106.189 80.6414 106.126 80.7704 106.053 80.9067C105.982 81.0459 105.903 81.1822 105.815 81.3156C105.73 81.449 105.641 81.5621 105.547 81.6549C105.439 81.7622 105.318 81.8448 105.186 81.9028C105.057 81.9637 104.917 81.9942 104.764 81.9942C104.659 81.9942 104.565 81.9797 104.483 81.9507C104.401 81.9246 104.332 81.8883 104.276 81.8419C104.221 81.7955 104.178 81.7404 104.149 81.6766C104.119 81.6157 104.105 81.5519 104.105 81.4852C104.105 81.3838 104.127 81.2895 104.171 81.2025C104.218 81.1184 104.292 81.0343 104.395 80.9502L105.239 81.333C105.313 81.2605 105.387 81.1648 105.463 81.0459C105.54 80.9299 105.612 80.8067 105.679 80.6762C105.746 80.5457 105.808 80.4152 105.864 80.2847C105.919 80.1571 105.963 80.044 105.996 79.9454L104.465 76.0609L103.968 76.0087V75.6607H105.96V76.0087L105.529 76.0348C105.488 76.0406 105.453 76.0565 105.424 76.0826C105.398 76.1087 105.384 76.1406 105.384 76.1783C105.384 76.2015 105.387 76.2189 105.393 76.2305L106.44 78.8579L107.508 76.2305C107.517 76.2131 107.521 76.1943 107.521 76.174C107.521 76.1392 107.508 76.1087 107.482 76.0826C107.458 76.0536 107.426 76.0377 107.385 76.0348L106.959 76.0087V75.6607H108.564V76.0087L108.093 76.0609Z" fill="#727171"/>
<path d="M110.933 79.2668C110.933 79.3625 110.916 79.4524 110.881 79.5365C110.845 79.6206 110.796 79.6931 110.731 79.754C110.67 79.8149 110.596 79.8642 110.511 79.9019C110.429 79.9367 110.34 79.9541 110.243 79.9541C110.146 79.9541 110.055 79.9367 109.97 79.9019C109.885 79.8642 109.811 79.8149 109.746 79.754C109.685 79.6931 109.636 79.6206 109.601 79.5365C109.566 79.4524 109.548 79.3625 109.548 79.2668C109.548 79.1711 109.566 79.0826 109.601 79.0014C109.636 78.9173 109.685 78.8448 109.746 78.7839C109.811 78.7201 109.885 78.6708 109.97 78.636C110.055 78.6012 110.146 78.5838 110.243 78.5838C110.34 78.5838 110.429 78.6012 110.511 78.636C110.596 78.6708 110.67 78.7201 110.731 78.7839C110.796 78.8448 110.845 78.9173 110.881 79.0014C110.916 79.0826 110.933 79.1711 110.933 79.2668Z" fill="#727171"/>
<path d="M77.71 77.8139C77.71 78.13 77.6587 78.4258 77.5561 78.7013C77.4564 78.9739 77.3127 79.2117 77.1251 79.4147C76.9404 79.6148 76.7147 79.7728 76.4479 79.8888C76.1841 80.0048 75.888 80.0628 75.5597 80.0628C75.2314 80.0628 74.9353 80.0063 74.6714 79.8932C74.4076 79.7772 74.1833 79.6191 73.9986 79.419C73.814 79.2189 73.6718 78.9826 73.5721 78.71C73.4754 78.4345 73.427 78.1358 73.427 77.8139C73.427 77.4978 73.4768 77.202 73.5765 76.9265C73.6762 76.651 73.8198 76.4118 74.0074 76.2088C74.1951 76.0029 74.4208 75.8419 74.6846 75.7259C74.9514 75.6099 75.2519 75.5519 75.5861 75.5519C75.9203 75.5519 76.2193 75.6114 76.4831 75.7303C76.747 75.8492 76.9698 76.0116 77.1515 76.2175C77.3333 76.4205 77.471 76.6597 77.5648 76.9352C77.6616 77.2078 77.71 77.5007 77.71 77.8139ZM76.7733 77.8052C76.7733 77.5616 76.7484 77.3281 76.6986 77.1049C76.6517 76.8816 76.5784 76.6844 76.4787 76.5133C76.379 76.3422 76.2545 76.2059 76.105 76.1044C75.9554 76.0029 75.7796 75.9521 75.5773 75.9521C75.3691 75.9521 75.1888 76.0029 75.0364 76.1044C74.884 76.2059 74.7579 76.3422 74.6582 76.5133C74.5615 76.6844 74.4897 76.8816 74.4428 77.1049C74.3959 77.3281 74.3724 77.5616 74.3724 77.8052C74.3724 78.0459 74.3959 78.2779 74.4428 78.5012C74.4926 78.7245 74.5674 78.9217 74.667 79.0928C74.7667 79.2639 74.8913 79.4016 75.0408 79.506C75.1903 79.6075 75.3662 79.6583 75.5685 79.6583C75.7737 79.6583 75.9525 79.6075 76.105 79.506C76.2574 79.4045 76.382 79.2682 76.4787 79.0971C76.5784 78.926 76.6517 78.7288 76.6986 78.5055C76.7484 78.2822 76.7733 78.0488 76.7733 77.8052Z" fill="#BA462D"/>
<path d="M82.9688 77.8139C82.9688 78.13 82.9175 78.4258 82.8149 78.7013C82.7152 78.9739 82.5715 79.2117 82.3839 79.4147C82.1992 79.6148 81.9735 79.7728 81.7067 79.8888C81.4429 80.0048 81.1468 80.0628 80.8185 80.0628C80.4902 80.0628 80.1941 80.0063 79.9302 79.8932C79.6664 79.7772 79.4421 79.6191 79.2575 79.419C79.0728 79.2189 78.9306 78.9826 78.8309 78.71C78.7342 78.4345 78.6858 78.1358 78.6858 77.8139C78.6858 77.4978 78.7356 77.202 78.8353 76.9265C78.935 76.651 79.0786 76.4118 79.2662 76.2088C79.4539 76.0029 79.6796 75.8419 79.9434 75.7259C80.2102 75.6099 80.5107 75.5519 80.8449 75.5519C81.1791 75.5519 81.4781 75.6114 81.7419 75.7303C82.0058 75.8492 82.2286 76.0116 82.4103 76.2175C82.5921 76.4205 82.7298 76.6597 82.8237 76.9352C82.9204 77.2078 82.9688 77.5007 82.9688 77.8139ZM82.0321 77.8052C82.0321 77.5616 82.0072 77.3281 81.9574 77.1049C81.9105 76.8816 81.8372 76.6844 81.7375 76.5133C81.6379 76.3422 81.5133 76.2059 81.3638 76.1044C81.2142 76.0029 81.0384 75.9521 80.8361 75.9521C80.6279 75.9521 80.4477 76.0029 80.2952 76.1044C80.1428 76.2059 80.0167 76.3422 79.917 76.5133C79.8203 76.6844 79.7485 76.8816 79.7016 77.1049C79.6547 77.3281 79.6312 77.5616 79.6312 77.8052C79.6312 78.0459 79.6547 78.2779 79.7016 78.5012C79.7514 78.7245 79.8262 78.9217 79.9258 79.0928C80.0255 79.2639 80.1501 79.4016 80.2996 79.506C80.4491 79.6075 80.625 79.6583 80.8273 79.6583C81.0325 79.6583 81.2113 79.6075 81.3638 79.506C81.5162 79.4045 81.6408 79.2682 81.7375 79.0971C81.8372 78.926 81.9105 78.7288 81.9574 78.5055C82.0072 78.2822 82.0321 78.0488 82.0321 77.8052Z" fill="#BA462D"/>
<path d="M87.8511 79.6539V79.1798V78.8448V75.8129V75.3605V73.7293H87.1696V73.4335L88.3304 73.0898H88.691V79.0841C88.691 79.1392 88.7086 79.1841 88.7438 79.2189C88.779 79.2537 88.8244 79.274 88.8801 79.2798L89.2671 79.3059V79.6539H87.8511Z" fill="#BA462D"/>
<path fill-rule="evenodd" clip-rule="evenodd" d="M71.7281 74.0864C71.0923 74.4952 71.1755 74.5958 72.1543 74.6026C72.8328 74.6068 73.2269 74.3788 73.0451 74.0864C72.6537 73.4565 72.7085 73.4565 71.7281 74.0864Z" fill="#BA462D"/>
<path d="M36.3271 86.9384L36.2245 86.2802C36.2174 86.2437 36.2033 86.2151 36.1821 86.1945C36.1632 86.1717 36.1373 86.1603 36.1043 86.1603H35.0681V90.0442C35.0681 90.0785 35.0799 90.1116 35.1035 90.1436C35.1294 90.1756 35.1683 90.1939 35.2202 90.1984L35.6834 90.2259V90.5275H33.7208V90.2259L34.1841 90.1984C34.2359 90.1939 34.2736 90.1756 34.2972 90.1436C34.3231 90.1116 34.3361 90.0785 34.3361 90.0442V86.1603H33.2929C33.2599 86.1603 33.2316 86.1717 33.208 86.1945C33.1868 86.2151 33.1738 86.2437 33.1691 86.2802L33.0701 86.9384H32.6493V85.8175H36.7549V86.9384H36.3271Z" fill="#727171"/>
<path d="M37.3259 90.5275V90.2259L37.7007 90.1984C37.7526 90.1939 37.7915 90.1756 37.8174 90.1436C37.8457 90.1116 37.8598 90.0785 37.8598 90.0442V86.3008C37.8598 86.2665 37.8457 86.2334 37.8174 86.2014C37.7915 86.1694 37.7526 86.1511 37.7007 86.1466L37.3259 86.1191V85.8175H40.8445V86.863H40.4095L40.2999 86.2871C40.2952 86.2528 40.2798 86.222 40.2539 86.1945C40.2303 86.1671 40.2021 86.1534 40.169 86.1534H38.5989V87.9017H39.6846C39.7176 87.9017 39.747 87.888 39.773 87.8606C39.8013 87.8331 39.8154 87.8068 39.8154 87.7817L39.8897 87.2984H40.2575V88.865H39.8897L39.8154 88.3782C39.8154 88.353 39.8013 88.3256 39.773 88.2959C39.7447 88.2662 39.7152 88.2513 39.6846 88.2513H38.5989V90.1847H40.4307C40.4614 90.1847 40.4897 90.1687 40.5156 90.1367C40.5415 90.1047 40.5569 90.0762 40.5616 90.051L40.6924 89.3552H41.0814V90.5275H37.3259Z" fill="#727171"/>
<path d="M44.6546 90.5275V90.2259L45.0719 90.1916C45.0908 90.1916 45.1085 90.1802 45.125 90.1573C45.1415 90.1322 45.1497 90.1093 45.1497 90.0888C45.1497 90.0796 45.1485 90.0739 45.1462 90.0716L44.6476 88.7861H42.9749L42.494 90.051C42.4916 90.0556 42.4904 90.0625 42.4904 90.0716C42.4904 90.099 42.5022 90.1265 42.5258 90.1539C42.5517 90.179 42.5753 90.1916 42.5965 90.1916L43.0244 90.2259V90.5275H41.5674V90.2259L41.9883 90.1402L43.6751 85.7043H44.2197L45.8994 90.0373C45.9159 90.0853 45.9313 90.1173 45.9454 90.1333C45.9619 90.1493 45.9973 90.1619 46.0515 90.171L46.3768 90.2259V90.5275H44.6546ZM43.8059 86.6093L43.1022 88.4502H44.5167L43.8059 86.6093Z" fill="#727171"/>
<path d="M52.7111 89.1275C52.7111 89.3016 52.6728 89.4725 52.5961 89.6399C52.5219 89.8074 52.4031 89.957 52.2398 90.0888C52.0765 90.2205 51.8674 90.3266 51.6126 90.407C51.3577 90.4873 51.0522 90.5275 50.6959 90.5275C50.4881 90.5275 50.3013 90.5141 50.1355 90.4873C49.9722 90.4605 49.8312 90.4315 49.7124 90.4003C49.5763 90.3623 49.4538 90.3199 49.345 90.273V89.0571H49.8237L49.9239 89.8342C49.9289 89.861 49.9437 89.89 49.9685 89.9213C49.9957 89.9525 50.0229 89.9738 50.0501 89.9849L50.1132 90.0151C50.1503 90.0307 50.201 90.0486 50.2654 90.0687C50.3297 90.0865 50.4076 90.1033 50.4992 90.1189C50.5932 90.1345 50.6996 90.1423 50.8184 90.1423C50.9792 90.1423 51.1276 90.1245 51.2637 90.0888C51.4023 90.0508 51.521 89.9972 51.62 89.928C51.719 89.8588 51.7957 89.7739 51.8501 89.6734C51.907 89.5729 51.9355 89.4591 51.9355 89.3318C51.9355 89.1933 51.8909 89.0728 51.8019 88.97C51.7153 88.8651 51.6052 88.7724 51.4716 88.692C51.3404 88.6094 51.1969 88.5357 51.041 88.471C50.8852 88.4062 50.738 88.3437 50.5994 88.2834C50.4435 88.2164 50.2938 88.1472 50.1503 88.0757C50.0093 88.0043 49.8843 87.9217 49.7755 87.8279C49.6691 87.7341 49.5837 87.6247 49.5194 87.4996C49.4575 87.3724 49.4266 87.2216 49.4266 87.0475C49.4266 86.8443 49.4712 86.6601 49.5602 86.4948C49.6493 86.3296 49.7718 86.1889 49.9276 86.0728C50.086 85.9544 50.2716 85.864 50.4843 85.8015C50.6996 85.7367 50.9322 85.7043 51.1821 85.7043C51.3182 85.7043 51.4456 85.711 51.5643 85.7244C51.6831 85.7378 51.7944 85.7557 51.8984 85.778C52.0048 85.7981 52.1037 85.8216 52.1953 85.8484C52.2868 85.8729 52.3734 85.8964 52.4551 85.9187L52.5219 85.9388V87.0073H52.0876L51.9726 86.3508C51.9676 86.3195 51.9516 86.2972 51.9243 86.2838C51.8996 86.2682 51.8761 86.2503 51.8538 86.2302C51.8439 86.2235 51.8241 86.2123 51.7944 86.1967C51.7648 86.1788 51.7227 86.161 51.6683 86.1431C51.6163 86.1253 51.5507 86.1096 51.4716 86.0962C51.3924 86.0828 51.2996 86.0761 51.1932 86.0761C51.0398 86.0761 50.9025 86.0962 50.7813 86.1364C50.66 86.1766 50.5573 86.2336 50.4732 86.3072C50.3891 86.3787 50.3235 86.4636 50.2765 86.5618C50.232 86.6601 50.2097 86.7672 50.2097 86.8833C50.2097 86.9883 50.232 87.0843 50.2765 87.1714C50.3235 87.2563 50.3916 87.3355 50.4806 87.4092C50.5722 87.4807 50.6835 87.5477 50.8147 87.6102C50.9458 87.6727 51.0967 87.733 51.2674 87.791C51.4975 87.8692 51.7017 87.9507 51.8798 88.0356C52.0604 88.1204 52.2113 88.2153 52.3326 88.3203C52.4563 88.4252 52.5503 88.5436 52.6146 88.6753C52.679 88.8048 52.7111 88.9555 52.7111 89.1275Z" fill="#727171"/>
<path d="M56.721 90.417V90.1223L57.1552 90.0955C57.2072 90.091 57.2468 90.0731 57.274 90.0419C57.3012 90.0106 57.3148 89.9782 57.3148 89.9447V88.1729H54.8134V89.9447C54.8134 89.9782 54.8258 90.0106 54.8505 90.0419C54.8777 90.0731 54.9185 90.091 54.973 90.0955L55.4072 90.1223V90.417H53.4847V90.1223L53.8781 90.0955C53.9326 90.091 53.9734 90.0731 54.0006 90.0419C54.0303 90.0106 54.0451 89.9782 54.0451 89.9447V86.2871C54.0451 86.2537 54.0303 86.2224 54.0006 86.1934C53.9734 86.1643 53.9326 86.1476 53.8781 86.1431L53.4847 86.1163V85.8149H55.4072V86.1163L54.973 86.1431C54.9185 86.1476 54.8777 86.1643 54.8505 86.1934C54.8258 86.2224 54.8134 86.2537 54.8134 86.2871V87.8312H57.3148V86.2871C57.3148 86.2537 57.3012 86.2224 57.274 86.1934C57.2468 86.1643 57.2072 86.1476 57.1552 86.1431L56.721 86.1163V85.8149H58.6435V86.1163L58.2501 86.1431C58.1956 86.1476 58.1536 86.1643 58.1239 86.1934C58.0967 86.2224 58.0831 86.2537 58.0831 86.2871V89.9447C58.0831 89.9782 58.0967 90.0106 58.1239 90.0419C58.1536 90.0731 58.1956 90.091 58.2501 90.0955L58.6435 90.1223V90.417H56.721Z" fill="#727171"/>
<path d="M64.3754 88.1193C64.3754 88.452 64.316 88.7646 64.1972 89.0571C64.0785 89.3496 63.9102 89.6053 63.6925 89.8242C63.4772 90.0407 63.2174 90.2127 62.9131 90.34C62.6088 90.465 62.2711 90.5275 61.8999 90.5275C61.5263 90.5275 61.1861 90.4672 60.8793 90.3467C60.575 90.2239 60.314 90.0541 60.0962 89.8376C59.8785 89.621 59.7102 89.3664 59.5915 89.0739C59.4727 88.7791 59.4133 88.4587 59.4133 88.1126C59.4133 87.7776 59.4715 87.4639 59.5878 87.1714C59.7041 86.8789 59.8698 86.6243 60.0851 86.4077C60.3003 86.1889 60.5601 86.017 60.8645 85.8919C61.1713 85.7669 61.5139 85.7043 61.8925 85.7043C62.2686 85.7043 62.6088 85.768 62.9131 85.8953C63.2199 86.0225 63.4809 86.1956 63.6962 86.4144C63.9139 86.6333 64.0809 86.8889 64.1972 87.1814C64.316 87.474 64.3754 87.7866 64.3754 88.1193ZM63.4958 88.126C63.4958 87.8469 63.4624 87.5845 63.3956 87.3389C63.3288 87.091 63.2286 86.8755 63.095 86.6924C62.9614 86.5071 62.7944 86.362 62.5939 86.257C62.396 86.1498 62.1647 86.0962 61.8999 86.0962C61.6253 86.0962 61.3865 86.1498 61.1836 86.257C60.9808 86.3642 60.8125 86.5104 60.6789 86.6958C60.5453 86.8789 60.4463 87.0932 60.382 87.3389C60.3177 87.5823 60.2855 87.8402 60.2855 88.1126C60.2855 88.3872 60.3177 88.6485 60.382 88.8964C60.4488 89.142 60.5478 89.3575 60.6789 89.5428C60.8125 89.7281 60.9783 89.8755 61.1762 89.9849C61.3766 90.0943 61.6117 90.149 61.8814 90.149C62.156 90.149 62.3935 90.0943 62.5939 89.9849C62.7968 89.8755 62.9651 89.7293 63.0987 89.5461C63.2323 89.3608 63.3313 89.1465 63.3956 88.9031C63.4624 88.6574 63.4958 88.3984 63.4958 88.126Z" fill="#727171"/>
<path d="M69.0087 87.1982C69.0087 87.4505 68.9568 87.6705 68.8529 87.858C68.7514 88.0434 68.6116 88.1986 68.4335 88.3236C68.2578 88.4487 68.05 88.5424 67.81 88.605C67.5725 88.6652 67.3176 88.6954 67.0455 88.6954H67.0232C66.9737 88.6954 66.9193 88.6943 66.8599 88.692C66.803 88.6898 66.7473 88.6876 66.6929 88.6853C66.6409 88.6809 66.5951 88.6775 66.5556 88.6753C66.5184 88.6731 66.4949 88.6708 66.485 88.6686V89.9447C66.485 89.9782 66.4974 90.0106 66.5222 90.0419C66.5494 90.0731 66.5902 90.091 66.6446 90.0955L67.1457 90.1223V90.417H65.149V90.1223L65.5498 90.0955C65.6042 90.091 65.645 90.0731 65.6723 90.0419C65.702 90.0106 65.7168 89.9782 65.7168 89.9447V86.2871C65.7168 86.2537 65.702 86.2213 65.6723 86.19C65.645 86.1588 65.6042 86.1409 65.5498 86.1364L65.0933 86.1096V85.8149H66.9118C67.2706 85.8149 67.5811 85.8394 67.8434 85.8886C68.1081 85.9377 68.3259 86.017 68.4966 86.1264C68.6698 86.2358 68.7984 86.3787 68.8826 86.5551C68.9667 86.7293 69.0087 86.9436 69.0087 87.1982ZM68.2182 87.2082C68.2182 87.0408 68.1935 86.8923 68.144 86.7628C68.0945 86.631 68.0153 86.5205 67.9065 86.4312C67.8001 86.3396 67.6615 86.2704 67.4908 86.2235C67.3201 86.1744 67.1135 86.1498 66.871 86.1498C66.8364 86.1498 66.7968 86.1509 66.7523 86.1532C66.7077 86.1532 66.6657 86.1532 66.6261 86.1532C66.5815 86.1554 66.5345 86.1565 66.485 86.1565V88.3169C66.49 88.3169 66.5085 88.3191 66.5407 88.3236C66.5729 88.3258 66.61 88.3303 66.6521 88.337C66.6941 88.3415 66.7386 88.3459 66.7857 88.3504C66.8327 88.3526 66.8747 88.3538 66.9118 88.3538H66.9341C67.1296 88.3538 67.3065 88.3314 67.4648 88.2868C67.6232 88.2399 67.758 88.1695 67.8694 88.0757C67.9807 87.982 68.0661 87.8636 68.1254 87.7207C68.1873 87.5756 68.2182 87.4047 68.2182 87.2082Z" fill="#727171"/>
<path d="M83.1073 87.0028C83.1073 89.7691 80.9478 92.0115 78.2841 92.0115C75.6203 92.0115 73.4609 89.7691 73.4609 87.0028C73.4609 84.2366 75.6203 81.9941 78.2841 81.9941C80.9478 81.9941 83.1073 84.2366 83.1073 87.0028Z" fill="url(#paint0_radial_29_795)"/>
<defs>
<radialGradient id="paint0_radial_29_795" cx="0" cy="0" r="1" gradientUnits="userSpaceOnUse" gradientTransform="translate(76.906 89.6998) rotate(-63.5834) scale(7.7437 7.8269)">
<stop stop-color="#BA462D"/>
<stop offset="1" stop-color="#542014" stop-opacity="0"/>
</radialGradient>
</defs>
</svg>
