<svg width="26" height="24" viewBox="0 0 26 24" fill="none" xmlns="http://www.w3.org/2000/svg">
<path d="M12.45 5.8467C8.91784 5.8467 6.06881 8.59401 6.06881 12C6.06881 15.406 8.91784 18.1533 12.45 18.1533C15.9821 18.1533 18.8312 15.406 18.8312 12C18.8312 8.59401 15.9821 5.8467 12.45 5.8467ZM12.45 16.0004C10.1674 16.0004 8.30138 14.2064 8.30138 12C8.30138 9.79359 10.1619 7.99956 12.45 7.99956C14.7381 7.99956 16.5986 9.79359 16.5986 12C16.5986 14.2064 14.7326 16.0004 12.45 16.0004ZM20.5806 5.595C20.5806 6.39294 19.9142 7.03023 19.0922 7.03023C18.2647 7.03023 17.6038 6.3876 17.6038 5.595C17.6038 4.8024 18.2703 4.15977 19.0922 4.15977C19.9142 4.15977 20.5806 4.8024 20.5806 5.595ZM24.807 7.05165C24.7125 5.1291 24.2571 3.42609 22.7965 2.02298C21.3415 0.619881 19.5754 0.180743 17.5816 0.0843468C15.5267 -0.0281156 9.36771 -0.0281156 7.31282 0.0843468C5.3246 0.175388 3.55852 0.614526 2.09791 2.01763C0.637286 3.42072 0.187437 5.12373 0.0874707 7.04631C-0.0291569 9.02778 -0.0291569 14.9669 0.0874707 16.9484C0.181884 18.8709 0.637286 20.5739 2.09791 21.977C3.55852 23.3801 5.31907 23.8193 7.31282 23.9156C9.36771 24.0281 15.5267 24.0281 17.5816 23.9156C19.5754 23.8246 21.3415 23.3855 22.7965 21.977C24.2516 20.5739 24.707 18.8709 24.807 16.9484C24.9236 14.9669 24.9236 9.03315 24.807 7.05165ZM22.1523 19.0744C21.7191 20.1241 20.8805 20.9327 19.7864 21.3558C18.1481 21.9824 14.2605 21.8378 12.45 21.8378C10.6395 21.8378 6.74635 21.977 5.11358 21.3558C4.02503 20.9381 3.18643 20.1294 2.74769 19.0744C2.09791 17.4946 2.24786 13.7459 2.24786 12C2.24786 10.2542 2.10346 6.50007 2.74769 4.92558C3.18089 3.87594 4.01949 3.06729 5.11358 2.6442C6.75192 2.01763 10.6395 2.16222 12.45 2.16222C14.2605 2.16222 18.1536 2.02298 19.7864 2.6442C20.875 3.06192 21.7136 3.87057 22.1523 4.92558C22.8021 6.50541 22.6521 10.2542 22.6521 12C22.6521 13.7459 22.8021 17.4999 22.1523 19.0744Z" fill="#999999"/>
</svg>
