<svg width="215" height="65" viewBox="0 0 215 65" fill="none" xmlns="http://www.w3.org/2000/svg">
<path fill-rule="evenodd" clip-rule="evenodd" d="M13.9937 7.48354C11.8171 10.7199 7.79477 15.1039 4.83899 17.461C1.93879 19.7737 -0.230158 21.9948 0.0195782 22.3985C0.818393 23.6908 9.1709 18.5395 14.2973 13.591L19.2681 8.79466L24.1329 13.591C29.9538 19.3306 32.7933 20.9402 35.7747 20.1919C39.0401 19.3717 38.4842 18.2453 33.5887 15.765C28.251 13.0599 20.8093 6.29386 21.42 4.70222C21.7681 3.79479 19.4888 1.71051 18.1477 1.71051C17.9981 1.71051 16.1285 4.3088 13.9937 7.48354ZM197.913 3.46893C197.913 4.50893 202.734 14.418 203.958 15.8916C204.542 16.5964 203.856 17.03 201.558 17.4097C197.414 18.0948 186.795 18.1179 186.795 17.4422C186.795 17.1574 187.924 15.4965 189.306 13.7526C190.688 12.0087 192.308 9.50538 192.907 8.19084C193.866 6.08689 193.802 5.65755 192.379 4.61669C190.889 3.52709 190.539 3.829 187.929 8.45854C186.372 11.2227 183.314 15.4683 181.133 17.8938C176.944 22.5516 176.675 24.517 180.604 21.7485C182.635 20.3176 184.167 20.1346 192.14 20.3672L201.334 20.6366L201.286 25.0712C201.212 31.8748 199.712 35.3891 196.656 35.9176L194.116 36.3564L196.586 38.3004C197.945 39.3686 199.474 40.1075 199.982 39.9408C201.771 39.3549 204.559 34.2148 205.05 30.5987C205.323 28.5863 205.796 25.1182 206.101 22.8911L206.656 18.8414L208.753 20.4912C210.62 21.9597 212.076 22.023 214.431 20.7384C214.812 20.5297 212.774 18.2316 209.899 15.6308C207.026 13.0299 203.724 9.02558 202.562 6.73347C200.679 3.01735 197.913 1.07505 197.913 3.46893ZM71.2929 4.31992C70.6104 4.75183 64.5346 5.11104 57.7926 5.11873C48.3719 5.12814 45.6154 5.37873 45.8865 6.20064C46.1054 6.86433 48.259 7.36637 51.5603 7.52544C57.5069 7.8111 58.174 8.48163 57.2777 13.2634L56.7167 16.25H49.423C42.9384 16.25 42.161 16.4159 42.4158 17.7467C42.6527 18.992 43.8142 19.2853 49.3204 19.4931C56.6294 19.7694 56.8826 20.0337 54.7393 25.1635C53.2281 28.7804 48.1307 34.4662 44.2478 36.8661C39.8885 39.5602 41.8958 40.7764 46.8546 38.4458C52.0341 36.0108 58.0073 29.3081 59.7965 23.9217L61.2085 19.671H69.7517C78.082 19.671 78.2881 19.624 78.0221 17.7775C77.7587 15.9583 77.4406 15.8942 69.8373 16.1388L61.9261 16.392V12.0447V7.69735H67.9129C73.2686 7.69735 73.8998 7.52202 73.8998 6.03729C73.8998 3.95643 72.9042 3.30044 71.2929 4.31992ZM16.7297 22.8766C7.61176 23.1092 6.24076 23.3264 6.68037 24.4716C6.96004 25.2012 7.18925 25.9589 7.18925 26.1556C7.18925 26.3524 11.0379 26.5131 15.7419 26.5131C20.4458 26.5131 24.2945 26.7389 24.2945 27.016C24.2945 27.2923 22.9475 29.9265 21.3011 32.8712C17.7928 39.1437 17.6029 40.4163 20.232 40.0434C21.6081 39.8475 23.4085 37.6991 26.5524 32.5C30.5807 25.8392 30.8381 25.1045 29.6271 23.7335C28.9001 22.9108 28.0765 22.3198 27.7968 22.4216C27.5171 22.5233 22.5369 22.7277 16.7297 22.8766ZM63.6366 23.9816C63.6366 25.9538 67.3125 31.8808 70.7806 35.5003C74.4454 39.325 76.5887 40.093 79.0313 38.456C80.0919 37.7453 79.7207 37.1218 76.8932 34.8622C75.0116 33.3595 71.5478 30.0924 69.1958 27.6036C64.9614 23.1229 63.6366 22.2591 63.6366 23.9816ZM189.316 25.4441C187.106 31.5104 186.317 32.7745 182.83 35.8441C180.777 37.6512 179.097 39.396 179.097 39.721C179.097 40.6866 182.725 39.3199 185.957 37.1381C190.624 33.9873 194.582 26.0898 192.526 24.0337C191.046 22.5541 190.24 22.9074 189.316 25.4441Z" fill="#727171"/>
<path fill-rule="evenodd" clip-rule="evenodd" d="M164.234 0.387437C162.658 0.953621 160.832 3.19441 160.832 4.56027C160.832 5.72856 166.136 4.21046 167.759 2.57776C169.615 0.711581 167.313 -0.719274 164.234 0.387437ZM90.2396 8.8648C87.5307 10.0545 87.3963 10.2717 88.7512 11.2775C90.0363 12.2328 90.2396 13.9057 90.2396 23.5172C90.2396 32.3332 89.9759 34.8699 88.9732 35.7072C88.2766 36.2888 87.9168 37.1056 88.1728 37.5221C88.8685 38.6536 96.547 38.4381 97.7241 37.2544C99.1129 35.8578 99.0066 34.8597 97.4689 34.8597C96.3879 34.8597 96.1931 32.7694 96.1931 21.1755C96.1931 5.90132 96.3326 6.1904 90.2396 8.8648ZM112.778 8.69888C107.416 11.0953 104.698 15.9147 104.698 23.0263C104.698 32.1767 110.077 37.5965 119.157 37.5965C127.577 37.5965 132.782 33.1329 134.111 24.7744C135.113 18.4711 131.101 11.0577 125.39 8.65783C121.9 7.19191 116.108 7.20987 112.778 8.69888ZM146.349 9.23257C141.84 11.9361 139.482 15.9729 139.026 21.7682C138.703 25.8649 138.977 27.3197 140.591 30.0753C146.397 39.9947 159.297 40.5514 166.252 31.1838C168.83 27.7114 169.152 19.8515 166.896 15.4076C164.294 10.2777 160.678 8.03263 154.49 7.70507C150.449 7.49125 148.709 7.81711 146.349 9.23257ZM123.313 12.3089C125.797 14.0588 128.469 19.8584 128.494 23.5548C128.518 27.288 126.516 31.9355 124.388 33.0807C121.255 34.7664 115.88 34.208 113.649 31.9646C109.166 27.4565 108.971 17.6022 113.28 13.2694C116.009 10.5249 120.209 10.1229 123.313 12.3089ZM158.59 13.018C161.545 15.7719 162.533 18.5618 162.533 24.1586C162.533 27.8414 162.1 29.2586 160.331 31.3728C158.443 33.6298 157.555 34.0044 154.1 34.0044C151.02 34.0044 149.649 33.5511 148.279 32.0801C143.406 26.8484 143.434 16.2979 148.33 12.4278C151.124 10.2204 155.882 10.4941 158.59 13.018ZM15.3947 14.0417C15.3947 14.9089 17.3994 18.2154 18.2864 18.8107C18.801 19.1562 20.2741 19.4444 21.5609 19.4521C24.0316 19.4658 24.7316 17.7382 22.8367 16.3039C21.5643 15.3417 15.3947 13.4661 15.3947 14.0417Z" fill="#BA462D"/>
<path d="M6.19064 61.6633V61.0385L7.02126 60.9817C7.12065 60.9723 7.19638 60.9344 7.24844 60.8682C7.3005 60.8019 7.32653 60.7333 7.32653 60.6623V56.9067H2.54157V60.6623C2.54157 60.7333 2.56523 60.8019 2.61256 60.8682C2.66462 60.9344 2.74272 60.9723 2.84684 60.9817L3.67746 61.0385V61.6633H0V61.0385L0.752531 60.9817C0.856655 60.9723 0.934748 60.9344 0.98681 60.8682C1.0436 60.8019 1.072 60.7333 1.072 60.6623V52.9098C1.072 52.8388 1.0436 52.7725 0.98681 52.711C0.934748 52.6495 0.856655 52.614 0.752531 52.6045L0 52.5477V51.9088H3.67746V52.5477L2.84684 52.6045C2.74272 52.614 2.66462 52.6495 2.61256 52.711C2.56523 52.7725 2.54157 52.8388 2.54157 52.9098V56.1826H7.32653V52.9098C7.32653 52.8388 7.3005 52.7725 7.24844 52.711C7.19638 52.6495 7.12065 52.614 7.02126 52.6045L6.19064 52.5477V51.9088H9.8681V52.5477L9.11557 52.6045C9.01145 52.614 8.93099 52.6495 8.87419 52.711C8.82213 52.7725 8.7961 52.8388 8.7961 52.9098V60.6623C8.7961 60.7333 8.82213 60.8019 8.87419 60.8682C8.93099 60.9344 9.01145 60.9723 9.11557 60.9817L9.8681 61.0385V61.6633H6.19064Z" fill="#727171"/>
<path d="M15.9233 61.6633L15.7316 60.8043C15.476 60.9983 15.2133 61.1711 14.9436 61.3225C14.8252 61.3888 14.6998 61.4527 14.5673 61.5142C14.4348 61.5757 14.2975 61.6302 14.1555 61.6775C14.0183 61.7295 13.8763 61.7698 13.7296 61.7982C13.5876 61.8266 13.4456 61.8408 13.3036 61.8408C13.0386 61.8408 12.7901 61.7958 12.5582 61.7059C12.331 61.616 12.1322 61.4858 11.9618 61.3154C11.7915 61.145 11.6566 60.9392 11.5572 60.6978C11.4625 60.4564 11.4152 60.1819 11.4152 59.8742C11.4152 59.6944 11.4318 59.524 11.4649 59.3631C11.5027 59.2022 11.5761 59.046 11.685 58.8945C11.7938 58.7431 11.9453 58.5987 12.1393 58.4615C12.3381 58.3195 12.5961 58.1799 12.9132 58.0426C13.235 57.9054 13.6255 57.7705 14.0845 57.638C14.5484 57.5007 15.0974 57.3634 15.7316 57.2262V56.6014C15.7316 56.114 15.6227 55.7543 15.405 55.5223C15.1873 55.2857 14.8442 55.1674 14.3756 55.1674C14.12 55.1674 13.9023 55.191 13.7225 55.2384C13.5426 55.2857 13.4172 55.3236 13.3462 55.352V56.6156H12.2884C12.2222 56.6156 12.1559 56.6109 12.0896 56.6014C12.0281 56.592 11.9713 56.5731 11.9192 56.5447C11.8672 56.5115 11.8246 56.4689 11.7915 56.4169C11.7631 56.3601 11.7489 56.2867 11.7489 56.1968C11.7489 55.8986 11.8388 55.643 12.0186 55.4301C12.1985 55.2123 12.4328 55.0325 12.7215 54.8905C13.0102 54.7485 13.3344 54.6444 13.6941 54.5781C14.0538 54.5119 14.4135 54.4787 14.7732 54.4787C15.2228 54.4787 15.5943 54.5332 15.8878 54.642C16.186 54.7509 16.4202 54.9023 16.5906 55.0964C16.7657 55.2904 16.8888 55.52 16.9598 55.785C17.0308 56.0501 17.0663 56.3411 17.0663 56.6582V60.7333C17.0663 60.8232 17.0947 60.8966 17.1515 60.9534C17.213 61.0101 17.2864 61.0433 17.3715 61.0527L18.0744 61.0953V61.6633H15.9233ZM15.7316 57.7799C15.0785 57.9456 14.5602 58.1089 14.1768 58.2698C13.7935 58.4307 13.5024 58.594 13.3036 58.7597C13.1096 58.9206 12.9841 59.0862 12.9274 59.2566C12.8753 59.4223 12.8493 59.595 12.8493 59.7749C12.8493 59.9263 12.8729 60.0754 12.9203 60.2221C12.9723 60.3641 13.0433 60.4919 13.1332 60.6055C13.2279 60.7191 13.3415 60.8114 13.474 60.8824C13.6113 60.9486 13.7674 60.9817 13.9426 60.9817C14.1366 60.9817 14.3378 60.9463 14.546 60.8753C14.759 60.8043 14.953 60.7262 15.1282 60.641C15.3317 60.5416 15.5328 60.4256 15.7316 60.2931V57.7799Z" fill="#727171"/>
<path d="M25.6701 55.3094L23.1286 61.6633H22.1843L19.8416 55.3094L19.0393 55.2242V54.6562H22.2553V55.2242L21.5596 55.2668C21.4933 55.2762 21.4365 55.3023 21.3892 55.3449C21.3466 55.3827 21.3253 55.4348 21.3253 55.501C21.3253 55.52 21.3301 55.5484 21.3395 55.5862L22.9653 60.1369L24.7543 55.5862C24.7685 55.5578 24.7756 55.5271 24.7756 55.494C24.7756 55.4372 24.7543 55.3875 24.7117 55.3449C24.6738 55.2975 24.6218 55.2715 24.5555 55.2668L23.9024 55.2242V54.6562H26.444V55.2242L25.6701 55.3094Z" fill="#727171"/>
<path d="M33.8054 60.9392C33.6019 61.0669 33.3889 61.1853 33.1665 61.2941C32.9488 61.403 32.7216 61.4976 32.4849 61.5781C32.253 61.6586 32.0164 61.7224 31.775 61.7698C31.5336 61.8171 31.2899 61.8408 31.0438 61.8408C30.6036 61.8408 30.18 61.7674 29.773 61.6207C29.366 61.4692 29.0063 61.2444 28.6939 60.9463C28.3862 60.6481 28.1378 60.2742 27.9484 59.8246C27.7639 59.3702 27.6716 58.8401 27.6716 58.2343C27.6716 57.6664 27.7568 57.1528 27.9271 56.6937C28.0975 56.2299 28.3342 55.8347 28.6371 55.5081C28.94 55.1768 29.2997 54.9236 29.7162 54.7485C30.1327 54.5687 30.5894 54.4787 31.0864 54.4787C31.536 54.4787 31.9312 54.5545 32.272 54.7059C32.6127 54.8526 32.8967 55.0585 33.1239 55.3236C33.3511 55.5839 33.5214 55.8986 33.635 56.2678C33.7486 56.6322 33.8054 57.0298 33.8054 57.4605V57.6522C33.8054 57.7279 33.8007 57.7989 33.7912 57.8651H29.0772C29.0772 58.2343 29.1151 58.6035 29.1908 58.9726C29.2713 59.3418 29.4038 59.6731 29.5884 59.9665C29.773 60.26 30.0215 60.499 30.3338 60.6836C30.6462 60.8634 31.0367 60.9534 31.5052 60.9534C31.7135 60.9534 31.9194 60.9273 32.1229 60.8753C32.3264 60.8185 32.5252 60.7475 32.7192 60.6623C32.918 60.5771 33.1073 60.4824 33.2872 60.3783C33.467 60.2694 33.6398 60.1606 33.8054 60.0517V60.9392ZM32.35 56.8925C32.35 56.6511 32.3216 56.4287 32.2649 56.2252C32.2081 56.0169 32.1205 55.8371 32.0022 55.6856C31.8886 55.5342 31.7419 55.4159 31.562 55.3307C31.3869 55.2407 31.1787 55.1958 30.9373 55.1958C30.6959 55.1958 30.4711 55.2431 30.2628 55.3378C30.0546 55.4277 29.87 55.5602 29.7091 55.7353C29.5529 55.9104 29.4251 56.1234 29.3257 56.3743C29.2311 56.6204 29.1743 56.8996 29.1553 57.212H32.35V56.8925Z" fill="#727171"/>
<path d="M47.0162 61.6633L46.8245 60.8043C46.5689 60.9983 46.3062 61.1711 46.0365 61.3225C45.9181 61.3888 45.7927 61.4527 45.6602 61.5142C45.5277 61.5757 45.3904 61.6302 45.2484 61.6775C45.1112 61.7295 44.9692 61.7698 44.8225 61.7982C44.6805 61.8266 44.5385 61.8408 44.3965 61.8408C44.1315 61.8408 43.883 61.7958 43.6511 61.7059C43.4239 61.616 43.2251 61.4858 43.0547 61.3154C42.8843 61.145 42.7495 60.9392 42.6501 60.6978C42.5554 60.4564 42.5081 60.1819 42.5081 59.8742C42.5081 59.6944 42.5247 59.524 42.5578 59.3631C42.5956 59.2022 42.669 59.046 42.7779 58.8945C42.8867 58.7431 43.0382 58.5987 43.2322 58.4615C43.431 58.3195 43.6889 58.1799 44.006 58.0426C44.3279 57.9054 44.7183 57.7705 45.1774 57.638C45.6413 57.5007 46.1903 57.3634 46.8245 57.2262V56.6014C46.8245 56.114 46.7156 55.7543 46.4979 55.5223C46.2802 55.2857 45.9371 55.1674 45.4685 55.1674C45.2129 55.1674 44.9952 55.191 44.8154 55.2384C44.6355 55.2857 44.5101 55.3236 44.4391 55.352V56.6156H43.3813C43.315 56.6156 43.2488 56.6109 43.1825 56.6014C43.121 56.592 43.0642 56.5731 43.0121 56.5447C42.9601 56.5115 42.9175 56.4689 42.8843 56.4169C42.856 56.3601 42.8418 56.2867 42.8418 56.1968C42.8418 55.8986 42.9317 55.643 43.1115 55.4301C43.2914 55.2123 43.5257 55.0325 43.8144 54.8905C44.1031 54.7485 44.4273 54.6444 44.787 54.5781C45.1467 54.5119 45.5064 54.4787 45.8661 54.4787C46.3157 54.4787 46.6872 54.5332 46.9807 54.642C47.2789 54.7509 47.5131 54.9023 47.6835 55.0964C47.8586 55.2904 47.9817 55.52 48.0527 55.785C48.1237 56.0501 48.1592 56.3411 48.1592 56.6582V60.7333C48.1592 60.8232 48.1876 60.8966 48.2444 60.9534C48.3059 61.0101 48.3792 61.0433 48.4644 61.0527L49.1673 61.0953V61.6633H47.0162ZM46.8245 57.7799C46.1713 57.9456 45.6531 58.1089 45.2697 58.2698C44.8864 58.4307 44.5953 58.594 44.3965 58.7597C44.2025 58.9206 44.077 59.0862 44.0202 59.2566C43.9682 59.4223 43.9422 59.595 43.9422 59.7749C43.9422 59.9263 43.9658 60.0754 44.0131 60.2221C44.0652 60.3641 44.1362 60.4919 44.2261 60.6055C44.3208 60.7191 44.4344 60.8114 44.5669 60.8824C44.7042 60.9486 44.8603 60.9817 45.0355 60.9817C45.2295 60.9817 45.4307 60.9463 45.6389 60.8753C45.8519 60.8043 46.0459 60.7262 46.221 60.641C46.4246 60.5416 46.6257 60.4256 46.8245 60.2931V57.7799Z" fill="#727171"/>
<path d="M63.0525 55.6288C63.1613 55.804 63.2536 55.9956 63.3293 56.2039C63.4051 56.4074 63.4429 56.6511 63.4429 56.9351C63.4429 57.2996 63.3648 57.6238 63.2087 57.9077C63.0525 58.1917 62.8419 58.4331 62.5768 58.6319C62.3165 58.8306 62.0136 58.9821 61.6681 59.0862C61.3273 59.1903 60.9676 59.2424 60.589 59.2424H60.447C60.3997 59.2424 60.3524 59.24 60.305 59.2353C60.2435 59.3347 60.2009 59.4412 60.1772 59.5548C60.1583 59.6684 60.1488 59.7749 60.1488 59.8742C60.1488 59.9642 60.1536 60.0399 60.163 60.1014C60.1725 60.163 60.1796 60.1985 60.1843 60.2079L60.3902 60.2292C60.6174 60.2529 60.8659 60.2813 61.1357 60.3144C61.4102 60.3428 61.6847 60.3878 61.9592 60.4493C62.2384 60.5061 62.5082 60.5818 62.7685 60.6765C63.0288 60.7664 63.2584 60.8824 63.4571 61.0243C63.6607 61.1616 63.8216 61.332 63.9399 61.5355C64.063 61.7343 64.1245 61.9709 64.1245 62.2454C64.1245 62.5909 64.0251 62.927 63.8263 63.2535C63.6323 63.5848 63.3648 63.8783 63.0241 64.1339C62.6833 64.3942 62.2834 64.6024 61.8243 64.7586C61.3652 64.9148 60.873 64.9929 60.3476 64.9929C59.9122 64.9929 59.5241 64.9408 59.1833 64.8367C58.8473 64.7326 58.5633 64.5882 58.3314 64.4036C58.0995 64.2191 57.922 63.999 57.799 63.7434C57.6759 63.4926 57.6144 63.2204 57.6144 62.927C57.6144 62.714 57.6451 62.5105 57.7067 62.3164C57.7682 62.1271 57.8629 61.9544 57.9906 61.7982C58.1184 61.6467 58.277 61.5166 58.4663 61.4077C58.6603 61.2941 58.8899 61.2137 59.1549 61.1663C59.1265 61.0906 59.1029 61.0291 59.0839 60.9817C59.065 60.9297 59.0484 60.8824 59.0342 60.8398C59.0248 60.7924 59.0177 60.7451 59.0129 60.6978C59.0082 60.6457 59.0058 60.5795 59.0058 60.499C59.0058 60.3097 59.0626 60.1014 59.1762 59.8742C59.2946 59.6423 59.4815 59.3962 59.7371 59.1359C59.4957 59.0791 59.2662 58.9892 59.0484 58.8661C58.8307 58.7431 58.639 58.5893 58.4734 58.4047C58.3077 58.2154 58.1752 58 58.0758 57.7586C57.9812 57.5125 57.9338 57.2428 57.9338 56.9493C57.9338 56.566 58.0048 56.2228 58.1468 55.9199C58.2888 55.6123 58.4876 55.352 58.7432 55.139C58.9987 54.926 59.304 54.7627 59.659 54.6491C60.0187 54.5355 60.4162 54.4787 60.8517 54.4787C61.0221 54.4787 61.1877 54.4929 61.3486 54.5213C61.5143 54.5497 61.6681 54.5876 61.8101 54.6349C61.9568 54.6775 62.0917 54.7249 62.2148 54.7769C62.3378 54.829 62.4467 54.8763 62.5413 54.9189L62.875 55.1816L63.0241 55.3804L63.0525 55.6288ZM62.875 62.6359C62.875 62.4371 62.8253 62.2667 62.7259 62.1247C62.6265 61.9875 62.494 61.8739 62.3283 61.784C62.1674 61.694 61.9828 61.6231 61.7746 61.571C61.5711 61.5142 61.3628 61.4692 61.1498 61.4361C60.9416 61.3982 60.7381 61.3698 60.5393 61.3509C60.3405 61.3273 60.1701 61.3012 60.0282 61.2728C59.8152 61.3485 59.6377 61.4408 59.4957 61.5497C59.3537 61.6538 59.2401 61.7674 59.1549 61.8905C59.0697 62.0135 59.0082 62.1389 58.9703 62.2667C58.9372 62.3945 58.9207 62.5176 58.9207 62.6359C58.9207 62.811 58.9585 62.998 59.0342 63.1967C59.11 63.3955 59.2259 63.5777 59.3821 63.7434C59.5383 63.909 59.7347 64.0463 59.9714 64.1552C60.2127 64.2687 60.4967 64.3255 60.8233 64.3255C61.1688 64.3255 61.4693 64.2687 61.7249 64.1552C61.9852 64.0463 62.2006 63.909 62.3709 63.7434C62.5413 63.5777 62.6667 63.3955 62.7472 63.1967C62.8324 62.998 62.875 62.811 62.875 62.6359ZM62.0586 56.8499C62.0586 56.6227 62.0278 56.4027 61.9663 56.1897C61.9095 55.972 61.8243 55.7827 61.7107 55.6217C61.5971 55.4561 61.4551 55.3236 61.2847 55.2242C61.1191 55.1248 60.9274 55.0751 60.7097 55.0751C60.5062 55.0751 60.3192 55.1153 60.1488 55.1958C59.9785 55.2762 59.8317 55.3946 59.7087 55.5507C59.5904 55.7022 59.4957 55.8891 59.4247 56.1116C59.3584 56.334 59.3253 56.5849 59.3253 56.8641C59.3253 57.1055 59.3537 57.335 59.4105 57.5528C59.472 57.7657 59.5596 57.9527 59.6732 58.1136C59.7915 58.2745 59.9359 58.4023 60.1062 58.497C60.2814 58.5916 60.4825 58.639 60.7097 58.639C60.9274 58.639 61.1191 58.5916 61.2847 58.497C61.4551 58.4023 61.5971 58.2745 61.7107 58.1136C61.8243 57.9527 61.9095 57.7634 61.9663 57.5457C62.0278 57.3279 62.0586 57.096 62.0586 56.8499Z" fill="#727171"/>
<path d="M72.7496 58.1704C72.7496 58.6863 72.6668 59.169 72.5011 59.6187C72.3402 60.0636 72.1083 60.4517 71.8054 60.783C71.5072 61.1095 71.1428 61.3675 70.7121 61.5568C70.2861 61.7461 69.8081 61.8408 69.278 61.8408C68.748 61.8408 68.2699 61.7485 67.844 61.5639C67.418 61.3746 67.0559 61.1166 66.7578 60.7901C66.4596 60.4635 66.23 60.0778 66.0691 59.6329C65.9129 59.1832 65.8349 58.6958 65.8349 58.1704C65.8349 57.6545 65.9153 57.1718 66.0762 56.7221C66.2372 56.2725 66.4691 55.882 66.772 55.5507C67.0749 55.2147 67.4393 54.952 67.8653 54.7627C68.296 54.5734 68.7811 54.4787 69.3206 54.4787C69.8602 54.4787 70.3429 54.5758 70.7689 54.7698C71.1949 54.9639 71.5546 55.2289 71.848 55.5649C72.1414 55.8962 72.3639 56.2867 72.5153 56.7363C72.6715 57.1812 72.7496 57.6593 72.7496 58.1704ZM71.2375 58.1562C71.2375 57.7586 71.1972 57.3776 71.1168 57.0132C71.041 56.6488 70.9227 56.3269 70.7618 56.0477C70.6009 55.7685 70.3997 55.546 70.1584 55.3804C69.917 55.2147 69.633 55.1319 69.3064 55.1319C68.9704 55.1319 68.6793 55.2147 68.4332 55.3804C68.1871 55.546 67.9836 55.7685 67.8227 56.0477C67.6665 56.3269 67.5505 56.6488 67.4748 57.0132C67.3991 57.3776 67.3612 57.7586 67.3612 58.1562C67.3612 58.549 67.3991 58.9277 67.4748 59.2921C67.5553 59.6565 67.6759 59.9784 67.8369 60.2576C67.9978 60.5369 68.1989 60.7617 68.4403 60.9321C68.6817 61.0977 68.9657 61.1805 69.2922 61.1805C69.6235 61.1805 69.9122 61.0977 70.1584 60.9321C70.4045 60.7664 70.6056 60.544 70.7618 60.2647C70.9227 59.9855 71.041 59.6636 71.1168 59.2992C71.1972 58.9348 71.2375 58.5538 71.2375 58.1562Z" fill="#727171"/>
<path d="M81.2399 58.1704C81.2399 58.6863 81.1571 59.169 80.9914 59.6187C80.8305 60.0636 80.5986 60.4517 80.2957 60.783C79.9975 61.1095 79.6331 61.3675 79.2024 61.5568C78.7764 61.7461 78.2984 61.8408 77.7683 61.8408C77.2382 61.8408 76.7602 61.7485 76.3342 61.5639C75.9083 61.3746 75.5462 61.1166 75.248 60.7901C74.9499 60.4635 74.7203 60.0778 74.5594 59.6329C74.4032 59.1832 74.3251 58.6958 74.3251 58.1704C74.3251 57.6545 74.4056 57.1718 74.5665 56.7221C74.7274 56.2725 74.9593 55.882 75.2622 55.5507C75.5651 55.2147 75.9296 54.952 76.3555 54.7627C76.7862 54.5734 77.2713 54.4787 77.8109 54.4787C78.3504 54.4787 78.8332 54.5758 79.2592 54.7698C79.6851 54.9639 80.0448 55.2289 80.3383 55.5649C80.6317 55.8962 80.8541 56.2867 81.0056 56.7363C81.1618 57.1812 81.2399 57.6593 81.2399 58.1704ZM79.7277 58.1562C79.7277 57.7586 79.6875 57.3776 79.607 57.0132C79.5313 56.6488 79.413 56.3269 79.2521 56.0477C79.0911 55.7685 78.89 55.546 78.6486 55.3804C78.4072 55.2147 78.1233 55.1319 77.7967 55.1319C77.4607 55.1319 77.1696 55.2147 76.9235 55.3804C76.6774 55.546 76.4738 55.7685 76.3129 56.0477C76.1567 56.3269 76.0408 56.6488 75.9651 57.0132C75.8893 57.3776 75.8515 57.7586 75.8515 58.1562C75.8515 58.549 75.8893 58.9277 75.9651 59.2921C76.0455 59.6565 76.1662 59.9784 76.3271 60.2576C76.488 60.5369 76.6892 60.7617 76.9306 60.9321C77.172 61.0977 77.4559 61.1805 77.7825 61.1805C78.1138 61.1805 78.4025 61.0977 78.6486 60.9321C78.8947 60.7664 79.0959 60.544 79.2521 60.2647C79.413 59.9855 79.5313 59.6636 79.607 59.2992C79.6875 58.9348 79.7277 58.5538 79.7277 58.1562Z" fill="#727171"/>
<path d="M88.0011 61.1734V60.3996C87.8354 60.5274 87.6627 60.6504 87.4828 60.7688C87.3077 60.8824 87.1255 60.9817 86.9362 61.0669C86.7516 61.1521 86.5599 61.2208 86.3611 61.2728C86.1671 61.3249 85.9636 61.3509 85.7506 61.3509C85.2631 61.3509 84.8419 61.2468 84.4869 61.0385C84.1367 60.8256 83.8479 60.5534 83.6208 60.2221C83.3936 59.8861 83.2256 59.5122 83.1167 59.1004C83.0126 58.6839 82.9605 58.2698 82.9605 57.858C82.9605 57.3658 83.0363 56.8878 83.1877 56.424C83.3392 55.9554 83.5687 55.5413 83.8763 55.1816C84.184 54.8219 84.5697 54.5332 85.0335 54.3155C85.4974 54.0977 86.0416 53.9889 86.6664 53.9889C86.78 53.9889 86.903 53.996 87.0356 54.0102C87.1681 54.0244 87.2959 54.0409 87.4189 54.0599C87.5467 54.0741 87.6603 54.093 87.7597 54.1167C87.8638 54.1356 87.9443 54.1522 88.0011 54.1664V51.5041H86.9007V51.0214L88.7749 50.4605H89.357V60.2434C89.357 60.3333 89.3854 60.4067 89.4422 60.4635C89.499 60.5203 89.5724 60.5534 89.6623 60.5629L90.2871 60.6055V61.1734H88.0011ZM88.0011 54.9047C87.9395 54.8858 87.8591 54.8645 87.7597 54.8408C87.665 54.8124 87.5609 54.7887 87.4473 54.7698C87.3385 54.7462 87.2225 54.7272 87.0994 54.713C86.9811 54.6988 86.8699 54.6917 86.7658 54.6917C86.4061 54.6917 86.0795 54.7627 85.7861 54.9047C85.4926 55.042 85.2418 55.2384 85.0335 55.494C84.83 55.7448 84.6715 56.0501 84.5579 56.4098C84.449 56.7695 84.3946 57.1694 84.3946 57.6096C84.3946 58.0071 84.4419 58.3739 84.5366 58.71C84.6312 59.0413 84.7685 59.33 84.9483 59.5761C85.1282 59.8222 85.3483 60.0139 85.6086 60.1511C85.8689 60.2884 86.1671 60.357 86.5031 60.357C86.6498 60.357 86.7918 60.3428 86.9291 60.3144C87.0663 60.2813 87.1988 60.241 87.3266 60.1937C87.4544 60.1417 87.5751 60.0872 87.6887 60.0304C87.8023 59.9689 87.9064 59.9097 88.0011 59.853V54.9047Z" fill="#727171"/>
<path d="M103.772 61.6633V60.8895C103.606 61.0172 103.433 61.1403 103.253 61.2586C103.078 61.3722 102.896 61.4716 102.707 61.5568C102.522 61.642 102.33 61.7106 102.132 61.7627C101.938 61.8147 101.734 61.8408 101.521 61.8408C101.034 61.8408 100.612 61.7366 100.257 61.5284C99.9071 61.3154 99.6184 61.0433 99.3912 60.712C99.164 60.3759 98.996 60.002 98.8872 59.5903C98.783 59.1738 98.731 58.7597 98.731 58.3479C98.731 57.8557 98.8067 57.3776 98.9582 56.9138C99.1096 56.4453 99.3392 56.0311 99.6468 55.6714C99.9544 55.3117 100.34 55.023 100.804 54.8053C101.268 54.5876 101.812 54.4787 102.437 54.4787C102.55 54.4787 102.673 54.4858 102.806 54.5C102.939 54.5142 103.066 54.5308 103.189 54.5497C103.317 54.5639 103.431 54.5829 103.53 54.6065C103.634 54.6255 103.715 54.642 103.772 54.6562V51.994H102.671V51.5112L104.545 50.9504H105.128V60.7333C105.128 60.8232 105.156 60.8966 105.213 60.9534C105.269 61.0101 105.343 61.0433 105.433 61.0527L106.058 61.0953V61.6633H103.772ZM103.772 55.3946C103.71 55.3756 103.63 55.3543 103.53 55.3307C103.435 55.3023 103.331 55.2786 103.218 55.2597C103.109 55.236 102.993 55.2171 102.87 55.2029C102.752 55.1887 102.64 55.1816 102.536 55.1816C102.177 55.1816 101.85 55.2526 101.557 55.3946C101.263 55.5318 101.012 55.7282 100.804 55.9838C100.6 56.2346 100.442 56.5399 100.328 56.8996C100.219 57.2593 100.165 57.6593 100.165 58.0994C100.165 58.497 100.212 58.8638 100.307 59.1998C100.402 59.5311 100.539 59.8198 100.719 60.0659C100.899 60.312 101.119 60.5037 101.379 60.641C101.639 60.7782 101.938 60.8469 102.274 60.8469C102.42 60.8469 102.562 60.8327 102.7 60.8043C102.837 60.7711 102.969 60.7309 103.097 60.6836C103.225 60.6315 103.346 60.5771 103.459 60.5203C103.573 60.4588 103.677 60.3996 103.772 60.3428V55.3946Z" fill="#727171"/>
<path d="M112.027 61.6633L111.836 60.8043C111.58 60.9983 111.318 61.1711 111.048 61.3225C110.929 61.3888 110.804 61.4527 110.672 61.5142C110.539 61.5757 110.402 61.6302 110.26 61.6775C110.123 61.7295 109.981 61.7698 109.834 61.7982C109.692 61.8266 109.55 61.8408 109.408 61.8408C109.143 61.8408 108.894 61.7958 108.662 61.7059C108.435 61.616 108.236 61.4858 108.066 61.3154C107.896 61.145 107.761 60.9392 107.661 60.6978C107.567 60.4564 107.519 60.1819 107.519 59.8742C107.519 59.6944 107.536 59.524 107.569 59.3631C107.607 59.2022 107.68 59.046 107.789 58.8945C107.898 58.7431 108.049 58.5987 108.244 58.4615C108.442 58.3195 108.7 58.1799 109.017 58.0426C109.339 57.9054 109.73 57.7705 110.189 57.638C110.653 57.5007 111.202 57.3634 111.836 57.2262V56.6014C111.836 56.114 111.727 55.7543 111.509 55.5223C111.292 55.2857 110.948 55.1674 110.48 55.1674C110.224 55.1674 110.007 55.191 109.827 55.2384C109.647 55.2857 109.521 55.3236 109.45 55.352V56.6156H108.393C108.326 56.6156 108.26 56.6109 108.194 56.6014C108.132 56.592 108.076 56.5731 108.023 56.5447C107.971 56.5115 107.929 56.4689 107.896 56.4169C107.867 56.3601 107.853 56.2867 107.853 56.1968C107.853 55.8986 107.943 55.643 108.123 55.4301C108.303 55.2123 108.537 55.0325 108.826 54.8905C109.114 54.7485 109.439 54.6444 109.798 54.5781C110.158 54.5119 110.518 54.4787 110.877 54.4787C111.327 54.4787 111.699 54.5332 111.992 54.642C112.29 54.7509 112.524 54.9023 112.695 55.0964C112.87 55.2904 112.993 55.52 113.064 55.785C113.135 56.0501 113.17 56.3411 113.17 56.6582V60.7333C113.17 60.8232 113.199 60.8966 113.256 60.9534C113.317 61.0101 113.391 61.0433 113.476 61.0527L114.179 61.0953V61.6633H112.027ZM111.836 57.7799C111.183 57.9456 110.664 58.1089 110.281 58.2698C109.898 58.4307 109.607 58.594 109.408 58.7597C109.214 58.9206 109.088 59.0862 109.032 59.2566C108.979 59.4223 108.953 59.595 108.953 59.7749C108.953 59.9263 108.977 60.0754 109.024 60.2221C109.077 60.3641 109.148 60.4919 109.237 60.6055C109.332 60.7191 109.446 60.8114 109.578 60.8824C109.715 60.9486 109.872 60.9817 110.047 60.9817C110.241 60.9817 110.442 60.9463 110.65 60.8753C110.863 60.8043 111.057 60.7262 111.232 60.641C111.436 60.5416 111.637 60.4256 111.836 60.2931V57.7799Z" fill="#727171"/>
<path d="M121.803 55.3094L119.013 62.1105C118.965 62.2289 118.899 62.3874 118.814 62.5862C118.729 62.785 118.627 62.9956 118.509 63.218C118.395 63.4452 118.267 63.6677 118.125 63.8854C117.988 64.1031 117.844 64.2877 117.692 64.4391C117.517 64.6143 117.323 64.7491 117.11 64.8438C116.902 64.9432 116.675 64.9929 116.429 64.9929C116.258 64.9929 116.107 64.9692 115.974 64.9219C115.842 64.8793 115.73 64.8201 115.641 64.7444C115.551 64.6687 115.482 64.5788 115.435 64.4746C115.387 64.3752 115.364 64.2711 115.364 64.1623C115.364 63.9966 115.399 63.8428 115.47 63.7008C115.546 63.5635 115.667 63.4263 115.832 63.289L117.195 63.9138C117.314 63.7955 117.434 63.6393 117.557 63.4452C117.68 63.2559 117.796 63.0548 117.905 62.8418C118.014 62.6288 118.113 62.4158 118.203 62.2028C118.293 61.9946 118.364 61.81 118.416 61.6491L115.946 55.3094L115.144 55.2242V54.6562H118.36V55.2242L117.664 55.2668C117.598 55.2762 117.541 55.3023 117.493 55.3449C117.451 55.3875 117.43 55.4395 117.43 55.501C117.43 55.5389 117.434 55.5673 117.444 55.5862L119.133 59.8742L120.859 55.5862C120.873 55.5578 120.88 55.5271 120.88 55.494C120.88 55.4372 120.859 55.3875 120.816 55.3449C120.778 55.2975 120.726 55.2715 120.66 55.2668L119.971 55.2242V54.6562H122.562V55.2242L121.803 55.3094Z" fill="#727171"/>
<path d="M126.388 60.5416C126.388 60.6978 126.36 60.8445 126.303 60.9817C126.246 61.119 126.166 61.2373 126.062 61.3367C125.962 61.4361 125.844 61.5166 125.707 61.5781C125.574 61.6349 125.43 61.6633 125.274 61.6633C125.118 61.6633 124.971 61.6349 124.834 61.5781C124.696 61.5166 124.576 61.4361 124.472 61.3367C124.372 61.2373 124.294 61.119 124.237 60.9817C124.18 60.8445 124.152 60.6978 124.152 60.5416C124.152 60.3854 124.18 60.241 124.237 60.1085C124.294 59.9713 124.372 59.853 124.472 59.7536C124.576 59.6494 124.696 59.569 124.834 59.5122C124.971 59.4554 125.118 59.427 125.274 59.427C125.43 59.427 125.574 59.4554 125.707 59.5122C125.844 59.569 125.962 59.6494 126.062 59.7536C126.166 59.853 126.246 59.9713 126.303 60.1085C126.36 60.241 126.388 60.3854 126.388 60.5416Z" fill="#727171"/>
<path d="M72.7497 58.1704C72.7497 58.6863 72.6668 59.1691 72.5012 59.6187C72.3403 60.0636 72.1084 60.4517 71.8055 60.783C71.5073 61.1096 71.1428 61.3675 70.7122 61.5568C70.2862 61.7461 69.8082 61.8408 69.2781 61.8408C68.748 61.8408 68.27 61.7485 67.844 61.5639C67.4181 61.3746 67.056 61.1167 66.7578 60.7901C66.4596 60.4635 66.2301 60.0778 66.0692 59.6329C65.913 59.1833 65.8349 58.6958 65.8349 58.1704C65.8349 57.6545 65.9154 57.1718 66.0763 56.7222C66.2372 56.2725 66.4691 55.8821 66.772 55.5508C67.0749 55.2147 67.4394 54.952 67.8653 54.7627C68.296 54.5734 68.7811 54.4788 69.3207 54.4788C69.8602 54.4788 70.343 54.5758 70.7689 54.7698C71.1949 54.9639 71.5546 55.2289 71.8481 55.565C72.1415 55.8963 72.3639 56.2867 72.5154 56.7364C72.6716 57.1812 72.7497 57.6593 72.7497 58.1704ZM71.2375 58.1562C71.2375 57.7587 71.1973 57.3777 71.1168 57.0132C71.0411 56.6488 70.9228 56.327 70.7618 56.0477C70.6009 55.7685 70.3998 55.546 70.1584 55.3804C69.917 55.2147 69.6331 55.1319 69.3065 55.1319C68.9704 55.1319 68.6794 55.2147 68.4333 55.3804C68.1872 55.546 67.9836 55.7685 67.8227 56.0477C67.6665 56.327 67.5506 56.6488 67.4749 57.0132C67.3991 57.3777 67.3613 57.7587 67.3613 58.1562C67.3613 58.5491 67.3991 58.9277 67.4749 59.2921C67.5553 59.6566 67.676 59.9784 67.8369 60.2576C67.9978 60.5369 68.199 60.7617 68.4404 60.9321C68.6817 61.0977 68.9657 61.1805 69.2923 61.1805C69.6236 61.1805 69.9123 61.0977 70.1584 60.9321C70.4045 60.7664 70.6057 60.544 70.7618 60.2647C70.9228 59.9855 71.0411 59.6637 71.1168 59.2992C71.1973 58.9348 71.2375 58.5538 71.2375 58.1562Z" fill="#BA462D"/>
<path d="M81.2399 58.1704C81.2399 58.6863 81.1571 59.1691 80.9914 59.6187C80.8305 60.0636 80.5986 60.4517 80.2957 60.783C79.9975 61.1096 79.6331 61.3675 79.2024 61.5568C78.7765 61.7461 78.2984 61.8408 77.7683 61.8408C77.2383 61.8408 76.7602 61.7485 76.3343 61.5639C75.9083 61.3746 75.5462 61.1167 75.2481 60.7901C74.9499 60.4635 74.7204 60.0778 74.5594 59.6329C74.4032 59.1833 74.3252 58.6958 74.3252 58.1704C74.3252 57.6545 74.4056 57.1718 74.5665 56.7222C74.7275 56.2725 74.9594 55.8821 75.2623 55.5508C75.5652 55.2147 75.9296 54.952 76.3556 54.7627C76.7863 54.5734 77.2714 54.4788 77.8109 54.4788C78.3505 54.4788 78.8332 54.5758 79.2592 54.7698C79.6852 54.9639 80.0449 55.2289 80.3383 55.565C80.6317 55.8963 80.8542 56.2867 81.0056 56.7364C81.1618 57.1812 81.2399 57.6593 81.2399 58.1704ZM79.7278 58.1562C79.7278 57.7587 79.6875 57.3777 79.6071 57.0132C79.5313 56.6488 79.413 56.327 79.2521 56.0477C79.0912 55.7685 78.89 55.546 78.6487 55.3804C78.4073 55.2147 78.1233 55.1319 77.7967 55.1319C77.4607 55.1319 77.1696 55.2147 76.9235 55.3804C76.6774 55.546 76.4739 55.7685 76.313 56.0477C76.1568 56.327 76.0408 56.6488 75.9651 57.0132C75.8894 57.3777 75.8515 57.7587 75.8515 58.1562C75.8515 58.5491 75.8894 58.9277 75.9651 59.2921C76.0456 59.6566 76.1663 59.9784 76.3272 60.2576C76.4881 60.5369 76.6892 60.7617 76.9306 60.9321C77.172 61.0977 77.456 61.1805 77.7825 61.1805C78.1138 61.1805 78.4026 61.0977 78.6487 60.9321C78.8948 60.7664 79.0959 60.544 79.2521 60.2647C79.413 59.9855 79.5313 59.6637 79.6071 59.2992C79.6875 58.9348 79.7278 58.5538 79.7278 58.1562Z" fill="#BA462D"/>
<path d="M87.9443 61.1805V60.4067V59.8601V54.9118V54.1735V51.5112H86.8439V51.0285L88.7181 50.4676H89.3002V60.2505C89.3002 60.3405 89.3286 60.4138 89.3854 60.4706C89.4422 60.5274 89.5156 60.5605 89.6055 60.57L90.2303 60.6126V61.1805H87.9443Z" fill="#BA462D"/>
<path fill-rule="evenodd" clip-rule="evenodd" d="M63.0922 52.0868C62.0656 52.7539 62.2 52.9181 63.7803 52.9292C64.8757 52.9361 65.5119 52.564 65.2185 52.0868C64.5865 51.0588 64.675 51.0588 63.0922 52.0868Z" fill="#BA462D"/>
<path d="M160.462 56.1367L160.28 54.934C160.268 54.8671 160.243 54.8149 160.205 54.7774C160.172 54.7356 160.126 54.7147 160.067 54.7147H158.232V61.812C158.232 61.8746 158.253 61.9352 158.295 61.9936C158.341 62.0521 158.41 62.0855 158.501 62.0939L159.322 62.144V62.6952H155.845V62.144L156.666 62.0939C156.758 62.0855 156.825 62.0521 156.866 61.9936C156.912 61.9352 156.935 61.8746 156.935 61.812V54.7147H155.087C155.029 54.7147 154.979 54.7356 154.937 54.7774C154.9 54.8149 154.877 54.8671 154.868 54.934L154.693 56.1367H153.947V54.0883H161.22V56.1367H160.462Z" fill="#727171"/>
<path d="M162.231 62.6952V62.144L162.895 62.0939C162.987 62.0855 163.056 62.0521 163.102 61.9936C163.152 61.9352 163.177 61.8746 163.177 61.812V54.9716C163.177 54.9089 163.152 54.8484 163.102 54.7899C163.056 54.7314 162.987 54.698 162.895 54.6897L162.231 54.6396V54.0883H168.464V55.9989H167.694L167.499 54.9465C167.491 54.8839 167.464 54.8275 167.418 54.7774C167.376 54.7272 167.326 54.7022 167.268 54.7022H164.486V57.8969H166.41C166.468 57.8969 166.52 57.8718 166.566 57.8217C166.616 57.7716 166.641 57.7236 166.641 57.6777L166.773 56.7944H167.424V59.6571H166.773L166.641 58.7676C166.641 58.7217 166.616 58.6716 166.566 58.6173C166.516 58.563 166.464 58.5358 166.41 58.5358H164.486V62.0688H167.731C167.786 62.0688 167.836 62.0396 167.882 61.9811C167.928 61.9227 167.955 61.8705 167.963 61.8245L168.195 60.5529H168.884V62.6952H162.231Z" fill="#727171"/>
<path d="M175.213 62.6952V62.144L175.953 62.0813C175.986 62.0813 176.017 62.0605 176.047 62.0187C176.076 61.9728 176.09 61.931 176.09 61.8934C176.09 61.8767 176.088 61.8663 176.084 61.8621L175.201 59.513H172.238L171.386 61.8245C171.382 61.8329 171.38 61.8454 171.38 61.8621C171.38 61.9122 171.401 61.9623 171.442 62.0124C171.488 62.0584 171.53 62.0813 171.568 62.0813L172.326 62.144V62.6952H169.745V62.144L170.49 61.9874L173.478 53.8816H174.443L177.418 61.7995C177.448 61.8872 177.475 61.9456 177.5 61.9749C177.529 62.0041 177.592 62.0271 177.688 62.0438L178.264 62.144V62.6952H175.213ZM173.71 55.5353L172.463 58.8992H174.969L173.71 55.5353Z" fill="#727171"/>
<path d="M186.997 60.2835C186.997 60.6093 186.933 60.9287 186.803 61.2419C186.678 61.5552 186.477 61.835 186.202 62.0813C185.926 62.3277 185.573 62.5261 185.143 62.6764C184.713 62.8268 184.197 62.9019 183.596 62.9019C183.245 62.9019 182.93 62.8769 182.65 62.8268C182.374 62.7767 182.136 62.7224 181.936 62.6639C181.706 62.5929 181.5 62.5136 181.316 62.4259V60.152H182.124L182.293 61.6053C182.301 61.6554 182.326 61.7097 182.368 61.7681C182.414 61.8266 182.46 61.8663 182.506 61.8872L182.612 61.9435C182.675 61.9728 182.761 62.0062 182.869 62.0438C182.978 62.0772 183.109 62.1085 183.264 62.1377C183.423 62.167 183.602 62.1816 183.803 62.1816C184.074 62.1816 184.325 62.1482 184.554 62.0813C184.788 62.0103 184.989 61.9101 185.156 61.7807C185.323 61.6512 185.452 61.4925 185.544 61.3046C185.64 61.1167 185.688 60.9037 185.688 60.6656C185.688 60.4067 185.613 60.1812 185.463 59.9891C185.316 59.7928 185.131 59.6195 184.905 59.4692C184.684 59.3147 184.442 59.1769 184.179 59.0558C183.915 58.9347 183.667 58.8177 183.433 58.705C183.17 58.5797 182.917 58.4502 182.675 58.3166C182.437 58.183 182.226 58.0284 182.042 57.8531C181.863 57.6777 181.719 57.473 181.61 57.2392C181.506 57.0011 181.454 56.7192 181.454 56.3935C181.454 56.0135 181.529 55.669 181.679 55.3599C181.829 55.0509 182.036 54.7878 182.299 54.5706C182.567 54.3493 182.88 54.1802 183.239 54.0633C183.602 53.9421 183.995 53.8816 184.417 53.8816C184.646 53.8816 184.861 53.8941 185.062 53.9192C185.262 53.9442 185.45 53.9776 185.626 54.0194C185.805 54.057 185.972 54.1008 186.127 54.1509C186.281 54.1969 186.427 54.2407 186.565 54.2825L186.678 54.3201V56.3183H185.945L185.751 55.0906C185.742 55.0321 185.715 54.9903 185.669 54.9653C185.628 54.9361 185.588 54.9026 185.55 54.8651C185.534 54.8525 185.5 54.8317 185.45 54.8024C185.4 54.769 185.329 54.7356 185.237 54.7022C185.149 54.6688 185.039 54.6396 184.905 54.6145C184.772 54.5894 184.615 54.5769 184.435 54.5769C184.176 54.5769 183.945 54.6145 183.74 54.6897C183.535 54.7648 183.362 54.8713 183.22 55.0091C183.078 55.1428 182.967 55.3015 182.888 55.4852C182.813 55.669 182.775 55.8694 182.775 56.0866C182.775 56.2828 182.813 56.4624 182.888 56.6253C182.967 56.784 183.082 56.9322 183.233 57.07C183.387 57.2037 183.575 57.329 183.796 57.4459C184.018 57.5628 184.272 57.6756 184.561 57.7841C184.949 57.9303 185.294 58.0827 185.594 58.2414C185.899 58.4001 186.154 58.5776 186.358 58.7739C186.567 58.9702 186.726 59.1915 186.834 59.4379C186.943 59.6801 186.997 59.962 186.997 60.2835Z" fill="#727171"/>
<path d="M193.765 62.6952V62.144L194.498 62.0939C194.586 62.0855 194.653 62.0521 194.699 61.9936C194.745 61.9352 194.768 61.8746 194.768 61.812V58.4983H190.546V61.812C190.546 61.8746 190.567 61.9352 190.608 61.9936C190.654 62.0521 190.723 62.0855 190.815 62.0939L191.548 62.144V62.6952H188.303V62.144L188.967 62.0939C189.059 62.0855 189.128 62.0521 189.174 61.9936C189.224 61.9352 189.249 61.8746 189.249 61.812V54.9716C189.249 54.9089 189.224 54.8504 189.174 54.7962C189.128 54.7419 189.059 54.7105 188.967 54.7022L188.303 54.6521V54.0883H191.548V54.6521L190.815 54.7022C190.723 54.7105 190.654 54.7419 190.608 54.7962C190.567 54.8504 190.546 54.9089 190.546 54.9716V57.8593H194.768V54.9716C194.768 54.9089 194.745 54.8504 194.699 54.7962C194.653 54.7419 194.586 54.7105 194.498 54.7022L193.765 54.6521V54.0883H197.01V54.6521L196.346 54.7022C196.254 54.7105 196.183 54.7419 196.133 54.7962C196.087 54.8504 196.064 54.9089 196.064 54.9716V61.812C196.064 61.8746 196.087 61.9352 196.133 61.9936C196.183 62.0521 196.254 62.0855 196.346 62.0939L197.01 62.144V62.6952H193.765Z" fill="#727171"/>
<path d="M206.685 58.398C206.685 59.0203 206.585 59.6049 206.384 60.152C206.184 60.6991 205.9 61.1772 205.532 61.5865C205.169 61.9916 204.73 62.3131 204.217 62.5512C203.703 62.785 203.133 62.9019 202.507 62.9019C201.876 62.9019 201.302 62.7892 200.784 62.5637C200.27 62.334 199.83 62.0166 199.462 61.6115C199.095 61.2065 198.811 60.7304 198.61 60.1833C198.41 59.6321 198.31 59.0328 198.31 58.3855C198.31 57.7591 198.408 57.1723 198.604 56.6253C198.8 56.0782 199.08 55.6021 199.443 55.1971C199.807 54.7878 200.245 54.4662 200.759 54.2324C201.277 53.9985 201.855 53.8816 202.494 53.8816C203.129 53.8816 203.703 54.0006 204.217 54.2386C204.735 54.4767 205.175 54.8003 205.538 55.2096C205.906 55.6188 206.188 56.097 206.384 56.6441C206.585 57.1911 206.685 57.7758 206.685 58.398ZM205.2 58.4106C205.2 57.8885 205.144 57.3979 205.031 56.9385C204.918 56.4749 204.749 56.072 204.524 55.7295C204.298 55.3829 204.016 55.1114 203.678 54.9152C203.344 54.7147 202.953 54.6145 202.507 54.6145C202.043 54.6145 201.64 54.7147 201.298 54.9152C200.955 55.1156 200.671 55.3892 200.446 55.7358C200.22 56.0782 200.053 56.4791 199.945 56.9385C199.836 57.3937 199.782 57.876 199.782 58.3855C199.782 58.8992 199.836 59.3878 199.945 59.8513C200.057 60.3107 200.224 60.7137 200.446 61.0603C200.671 61.4069 200.951 61.6825 201.285 61.8872C201.623 62.0918 202.02 62.1941 202.475 62.1941C202.939 62.1941 203.34 62.0918 203.678 61.8872C204.02 61.6825 204.304 61.409 204.53 61.0666C204.755 60.7199 204.922 60.319 205.031 59.8638C205.144 59.4045 205.2 58.92 205.2 58.4106Z" fill="#727171"/>
<path d="M214.505 56.6754C214.505 57.1473 214.417 57.5586 214.242 57.9094C214.071 58.256 213.835 58.5463 213.534 58.7801C213.238 59.014 212.887 59.1894 212.482 59.3063C212.081 59.4191 211.651 59.4755 211.191 59.4755H211.154C211.07 59.4755 210.978 59.4734 210.878 59.4692C210.782 59.465 210.688 59.4608 210.596 59.4567C210.509 59.4483 210.431 59.4421 210.365 59.4379C210.302 59.4337 210.262 59.4295 210.246 59.4253V61.812C210.246 61.8746 210.266 61.9352 210.308 61.9936C210.354 62.0521 210.423 62.0855 210.515 62.0939L211.361 62.144V62.6952H207.99V62.144L208.667 62.0939C208.759 62.0855 208.828 62.0521 208.874 61.9936C208.924 61.9352 208.949 61.8746 208.949 61.812V54.9716C208.949 54.9089 208.924 54.8484 208.874 54.7899C208.828 54.7314 208.759 54.698 208.667 54.6897L207.897 54.6396V54.0883H210.966C211.571 54.0883 212.096 54.1342 212.538 54.2261C212.985 54.318 213.353 54.4662 213.641 54.6709C213.933 54.8755 214.15 55.1428 214.292 55.4727C214.434 55.7984 214.505 56.1993 214.505 56.6754ZM213.171 56.6942C213.171 56.381 213.129 56.1033 213.046 55.8611C212.962 55.6147 212.828 55.408 212.645 55.2409C212.465 55.0697 212.231 54.9402 211.943 54.8525C211.655 54.7607 211.306 54.7147 210.897 54.7147C210.839 54.7147 210.772 54.7168 210.697 54.721C210.621 54.721 210.55 54.721 210.484 54.721C210.408 54.7252 210.329 54.7272 210.246 54.7272V58.7676C210.254 58.7676 210.285 58.7718 210.34 58.7801C210.394 58.7843 210.456 58.7927 210.527 58.8052C210.598 58.8136 210.674 58.8219 210.753 58.8303C210.832 58.8344 210.903 58.8365 210.966 58.8365H211.004C211.333 58.8365 211.632 58.7948 211.899 58.7112C212.167 58.6235 212.394 58.492 212.582 58.3166C212.77 58.1412 212.914 57.9199 213.014 57.6526C213.119 57.3812 213.171 57.0617 213.171 56.6942Z" fill="#727171"/>
<path d="M145.395 59.4408C145.395 62.5111 142.714 65 139.408 65C136.101 65 133.421 62.5111 133.421 59.4408C133.421 56.3705 136.101 53.8816 139.408 53.8816C142.714 53.8816 145.395 56.3705 145.395 59.4408Z" fill="url(#paint0_radial_26_726)"/>
<defs>
<radialGradient id="paint0_radial_26_726" cx="0" cy="0" r="1" gradientUnits="userSpaceOnUse" gradientTransform="translate(137.697 62.4342) rotate(-60.9454) scale(8.80547 9.48282)">
<stop stop-color="#BA462D"/>
<stop offset="1" stop-color="#542014" stop-opacity="0"/>
</radialGradient>
</defs>
</svg>
