<svg width="154" height="73" viewBox="0 0 154 73" fill="none" xmlns="http://www.w3.org/2000/svg">
<path fill-rule="evenodd" clip-rule="evenodd" d="M145.985 0.739116C142.971 1.81923 139.478 6.09399 139.478 8.69964C139.478 10.9284 149.622 8.03232 152.728 4.91762C156.278 1.35749 151.874 -1.37216 145.985 0.739116ZM4.45652 16.9114C-0.724716 19.181 -0.981745 19.5954 1.60969 21.5142C4.06772 23.3366 4.45652 26.528 4.45652 44.8638C4.45652 61.6823 3.95223 66.5216 2.03428 68.1189C0.701958 69.2284 0.0138262 70.7866 0.503482 71.5811C1.83417 73.7397 16.5206 73.3286 18.772 71.0705C21.4285 68.4061 21.2252 66.502 18.284 66.502C16.2164 66.502 15.8439 62.5144 15.8439 40.3965C15.8439 11.258 16.1106 11.8095 4.45652 16.9114ZM47.5658 16.5949C37.3107 21.1666 32.1115 30.3606 32.1115 43.9273C32.1115 61.3837 42.3992 71.7231 59.7665 71.7231C75.8714 71.7231 85.8272 63.2078 88.3699 47.2623C90.2862 35.2375 82.6127 21.0948 71.689 16.5166C65.0128 13.72 53.9345 13.7543 47.5658 16.5949ZM111.776 17.613C103.152 22.7705 98.6413 30.4716 97.7693 41.5272C97.1528 49.3426 97.6766 52.1179 100.763 57.3749C111.868 76.2981 136.542 77.3602 149.845 59.4894C154.776 52.8652 155.391 37.8708 151.077 29.3931C146.1 19.6068 139.183 15.3239 127.347 14.699C119.618 14.2911 116.29 14.9127 111.776 17.613ZM67.7149 23.4819C72.4666 26.8201 77.5779 37.8839 77.6251 44.9356C77.6723 52.0575 73.8412 60.9236 69.7711 63.1083C63.7797 66.3242 53.4986 65.2587 49.2316 60.9791C40.6569 52.379 40.2844 33.5798 48.5256 25.3141C53.7458 20.0784 61.7788 19.3115 67.7149 23.4819ZM135.19 24.8344C140.843 30.0882 142.731 35.4104 142.731 46.0875C142.731 53.1132 141.903 55.8167 138.52 59.85C134.908 64.1558 133.21 64.8704 126.602 64.8704C120.712 64.8704 118.089 64.0057 115.468 61.1993C106.147 51.2189 106.201 31.0916 115.566 23.7086C120.91 19.4975 130.01 20.0196 135.19 24.8344Z" fill="#BA462D"/>
</svg>
