<svg width="26" height="24" viewBox="0 0 26 24" fill="none" xmlns="http://www.w3.org/2000/svg">
<g clip-path="url(#clip0_33_145)">
<path d="M12.95 5.8467C9.41784 5.8467 6.56881 8.59401 6.56881 12C6.56881 15.406 9.41784 18.1533 12.95 18.1533C16.4821 18.1533 19.3312 15.406 19.3312 12C19.3312 8.59401 16.4821 5.8467 12.95 5.8467ZM12.95 16.0004C10.6674 16.0004 8.80138 14.2064 8.80138 12C8.80138 9.79359 10.6619 7.99956 12.95 7.99956C15.2381 7.99956 17.0986 9.79359 17.0986 12C17.0986 14.2064 15.2326 16.0004 12.95 16.0004ZM21.0806 5.595C21.0806 6.39294 20.4142 7.03023 19.5922 7.03023C18.7647 7.03023 18.1038 6.3876 18.1038 5.595C18.1038 4.8024 18.7703 4.15977 19.5922 4.15977C20.4142 4.15977 21.0806 4.8024 21.0806 5.595ZM25.307 7.05165C25.2125 5.1291 24.7571 3.42609 23.2965 2.02298C21.8415 0.619881 20.0754 0.180743 18.0816 0.0843468C16.0267 -0.0281156 9.86771 -0.0281156 7.81282 0.0843468C5.8246 0.175388 4.05852 0.614526 2.59791 2.01763C1.13729 3.42072 0.687437 5.12373 0.587471 7.04631C0.470843 9.02778 0.470843 14.9669 0.587471 16.9484C0.681884 18.8709 1.13729 20.5739 2.59791 21.977C4.05852 23.3801 5.81907 23.8193 7.81282 23.9156C9.86771 24.0281 16.0267 24.0281 18.0816 23.9156C20.0754 23.8246 21.8415 23.3855 23.2965 21.977C24.7516 20.5739 25.207 18.8709 25.307 16.9484C25.4236 14.9669 25.4236 9.03315 25.307 7.05165ZM22.6523 19.0744C22.2191 20.1241 21.3805 20.9327 20.2864 21.3558C18.6481 21.9824 14.7605 21.8378 12.95 21.8378C11.1395 21.8378 7.24635 21.977 5.61358 21.3558C4.52503 20.9381 3.68643 20.1294 3.24769 19.0744C2.59791 17.4946 2.74786 13.7459 2.74786 12C2.74786 10.2542 2.60346 6.50007 3.24769 4.92558C3.68089 3.87594 4.51949 3.06729 5.61358 2.6442C7.25192 2.01763 11.1395 2.16222 12.95 2.16222C14.7605 2.16222 18.6536 2.02298 20.2864 2.6442C21.375 3.06192 22.2136 3.87057 22.6523 4.92558C23.3021 6.50541 23.1521 10.2542 23.1521 12C23.1521 13.7459 23.3021 17.4999 22.6523 19.0744Z" fill="white"/>
</g>
<defs>
<clipPath id="clip0_33_145">
<rect width="25.2" height="24" fill="white" transform="translate(0.5)"/>
</clipPath>
</defs>
</svg>
